<svg width="105" height="106" viewBox="0 0 105 106" fill="none" xmlns="http://www.w3.org/2000/svg">
<circle cx="29" cy="81" r="25" fill="#95C21D" fill-opacity="0.6"/>
<g filter="url(#filter0_d)">
<path d="M44.6998 17.52C40.0598 18.34 35.7798 20.5 33.2398 23.32L32.0998 24.58L29.6998 25.1C26.6398 25.8 22.5198 27.14 20.4798 28.12C19.5398 28.58 18.4798 29.3 17.8398 29.9C16.8198 30.9 16.7998 30.94 16.7998 32.12C16.7998 32.76 16.8998 33.92 17.0198 34.7C17.1198 35.46 17.2998 36.72 17.3998 37.5C17.4998 38.26 18.2598 43.94 19.0998 50.1C20.4198 59.8 21.5398 68.14 22.1998 73.1C22.2998 73.86 22.6198 76.16 22.8998 78.2C23.1798 80.24 23.3998 82 23.3998 82.14C23.3998 82.26 23.5398 82.52 23.7198 82.68C23.9798 82.96 24.7998 83 29.6798 83C35.7198 83 35.7998 82.98 35.7998 82C35.7998 80.86 35.5198 80.8 30.3398 80.8C27.7398 80.8 25.5998 80.78 25.5998 80.74C25.5998 80.7 25.0198 76.36 24.2998 71.1C23.5998 65.82 22.6598 58.8 22.1998 55.5C21.7598 52.2 21.2598 48.5 21.0998 47.3C20.9398 46.08 20.3998 42.12 19.8998 38.5L18.9998 31.9L19.6198 31.38C21.1998 30.02 25.8198 28.34 31.3998 27.12C31.8598 27.02 31.9398 27.12 32.4398 28.46C32.7398 29.24 32.9198 29.94 32.8398 30.02C32.7598 30.08 31.8998 30.34 30.8998 30.58C27.8798 31.32 23.4598 32.8 23.0998 33.22C22.6998 33.64 22.5198 32.12 25.8798 57.1C28.7398 78.26 28.5198 76.86 28.9198 77.14C29.4598 77.52 70.5598 77.52 71.0798 77.14C71.4598 76.86 71.4998 76.54 73.1998 63.6C73.4398 61.9 73.8398 58.78 74.1198 56.7C74.3798 54.6 74.6998 52.26 74.7998 51.5C74.8998 50.72 75.1198 49.06 75.2998 47.8C75.4598 46.54 75.5998 45.22 75.5998 44.88C75.5998 43.76 74.4198 43.2 73.7198 43.98C73.3598 44.36 73.2998 44.74 72.3998 51.7C72.2798 52.58 72.0198 54.56 71.8198 56.1C71.6198 57.64 70.9598 62.56 70.3798 67.04L69.2998 75.2H49.9998H30.6798L30.3598 72.64C30.1598 71.24 29.6198 67.08 29.1198 63.4C28.6198 59.72 27.5798 51.98 26.7998 46.2C26.0398 40.42 25.3598 35.46 25.3198 35.18C25.2198 34.68 25.2998 34.64 27.0598 34.1C28.0798 33.78 30.0198 33.24 31.3998 32.88C33.8798 32.24 33.8998 32.24 34.0598 32.66C36.4398 38.96 39.3198 46.18 39.5598 46.44C39.8398 46.78 40.5998 46.8 49.9998 46.8C59.3998 46.8 60.1598 46.78 60.4398 46.44C60.6798 46.18 63.5598 38.96 65.9398 32.66C66.0998 32.24 66.1198 32.24 68.5998 32.88C73.0998 34.04 74.8198 34.62 74.7198 34.98C74.6598 35.16 74.4598 36.64 74.2598 38.28L73.8998 41.24L74.3798 41.62C74.9598 42.1 75.2398 42.1 75.7998 41.64C76.1798 41.32 76.2998 40.82 76.7598 37.44C77.2398 33.78 77.2398 33.58 76.9198 33.22C76.5398 32.8 72.1198 31.32 69.0998 30.58C68.1198 30.34 67.2398 30.08 67.1598 30.02C67.0798 29.94 67.2598 29.24 67.5598 28.46C68.0598 27.12 68.1398 27.02 68.5998 27.12C74.1798 28.34 78.7998 30.02 80.3798 31.38L80.9998 31.9L80.1998 37.7C79.7798 40.88 79.2398 44.84 78.9998 46.5C78.7798 48.14 78.2398 52.2 77.7998 55.5C77.3398 58.8 76.3998 65.82 75.6998 71.1C74.9798 76.36 74.3998 80.7 74.3998 80.74C74.3998 80.78 66.2598 80.8 56.3398 80.8C39.0798 80.8 38.2398 80.82 37.9398 81.16C37.5598 81.58 37.5198 82.06 37.7998 82.62C37.9998 83 38.4398 83 56.9998 83C73.9798 83 75.9998 82.96 76.2798 82.68C76.4598 82.52 76.5998 82.26 76.5998 82.14C76.5998 82 76.8198 80.24 77.0998 78.2C77.3798 76.16 77.6998 73.86 77.7998 73.1C78.4598 68.14 79.5798 59.8 80.8998 50.1C81.7398 43.94 82.4998 38.26 82.5998 37.5C82.6998 36.72 82.8798 35.46 82.9798 34.7C83.0998 33.92 83.1998 32.76 83.1998 32.12C83.1998 30.94 83.1798 30.9 82.1598 29.9C81.5198 29.3 80.4598 28.58 79.5198 28.12C77.4798 27.14 73.3398 25.78 70.2998 25.12C68.0198 24.62 67.8598 24.54 67.2998 23.84C64.6398 20.54 60.0198 18.18 54.6998 17.4C52.6598 17.12 46.5998 17.18 44.6998 17.52ZM53.2998 19.6C58.0598 20.14 61.8598 21.7 64.4598 24.18C66.2798 25.9 66.4598 24.92 62.3998 35.32L58.8398 44.5H49.9998H41.1598L37.5798 35.3L33.9998 26.1L34.5198 25.36C35.4798 24 37.8998 22.26 40.1998 21.28C43.9598 19.7 48.7198 19.1 53.2998 19.6Z" fill="black"/>
<path d="M45.5799 22.6999C41.8599 23.3999 38.6999 25.1199 37.9999 26.8199C37.7799 27.3199 38.0199 28.0199 40.2999 34.1399C41.6999 37.8599 42.9799 41.0199 43.1599 41.1399C43.3999 41.3399 45.0799 41.3999 50 41.3999C54.92 41.3999 56.6 41.3399 56.84 41.1399C57.02 41.0199 58.3 37.8599 59.7 34.1399C62.58 26.4799 62.52 26.8999 60.86 25.3799C59.78 24.3999 58.04 23.5599 55.9 22.9999C53.78 22.4399 47.86 22.2599 45.5799 22.6999ZM49.14 26.2399C49.86 27.0399 51.2 26.4399 51.2 25.2999V24.6799L52.56 24.8199C53.3 24.9199 54.06 24.9799 54.26 24.9799C54.56 24.9999 54.6 25.1199 54.48 25.6999C54.32 26.5599 54.78 27.1999 55.56 27.1999C56.12 27.1999 56.8 26.6799 56.8 26.2799C56.8 26.1399 56.88 25.9599 57 25.8999C57.38 25.6599 59.92 27.2599 59.7 27.5999C59.64 27.6999 58.64 30.2799 57.48 33.3399C56.34 36.3799 55.28 38.9399 55.16 39.0199C55.02 39.1199 54.76 38.8199 54.48 38.2399C53.96 37.1199 52.98 36.1399 51.96 35.6999L51.2 35.3999V32.2399C51.2 28.6999 51.06 28.1999 50 28.1999C48.94 28.1999 48.8 28.6999 48.8 32.2399V35.3999L48.06 35.6999C47.02 36.1399 46.04 37.1199 45.5199 38.2399C45.2399 38.8199 44.9799 39.1199 44.8399 39.0199C44.7199 38.9399 43.6599 36.3799 42.5199 33.3399C41.3599 30.2799 40.3599 27.6999 40.2999 27.5999C40.1799 27.4199 41.5199 26.4399 42.4599 26.0399C42.9399 25.8399 43.0399 25.8599 43.1399 26.1599C43.4999 27.1999 44.6199 27.5399 45.2999 26.7999C45.5599 26.5199 45.6199 26.2399 45.5199 25.7199L45.3799 25.0399L47.04 24.8799L48.7 24.6999L48.76 25.2999C48.8 25.6199 48.98 26.0599 49.14 26.2399Z" fill="black"/>
</g>
<g filter="url(#filter1_d)">
<path d="M90.2929 91.7071C90.6834 92.0976 91.3166 92.0976 91.7071 91.7071L98.0711 85.3431C98.4616 84.9526 98.4616 84.3195 98.0711 83.9289C97.6805 83.5384 97.0474 83.5384 96.6569 83.9289L91 89.5858L85.3431 83.9289C84.9526 83.5384 84.3195 83.5384 83.9289 83.9289C83.5384 84.3195 83.5384 84.9526 83.9289 85.3431L90.2929 91.7071ZM90 69V91H92V69H90Z" fill="black"/>
</g>
<g filter="url(#filter2_d)">
<line x1="91" y1="56" x2="91" y2="67" stroke="black" stroke-width="2"/>
</g>
<defs>
<filter id="filter0_d" x="0" y="0" width="106" height="107" filterUnits="userSpaceOnUse" color-interpolation-filters="sRGB">
<feFlood flood-opacity="0" result="BackgroundImageFix"/>
<feColorMatrix in="SourceAlpha" type="matrix" values="0 0 0 0 0 0 0 0 0 0 0 0 0 0 0 0 0 0 127 0"/>
<feOffset dx="3" dy="4"/>
<feGaussianBlur stdDeviation="1.5"/>
<feColorMatrix type="matrix" values="0 0 0 0 0.584314 0 0 0 0 0.760784 0 0 0 0 0.113725 0 0 0 0.5 0"/>
<feBlend mode="normal" in2="BackgroundImageFix" result="effect1_dropShadow"/>
<feBlend mode="normal" in="SourceGraphic" in2="effect1_dropShadow" result="shape"/>
</filter>
<filter id="filter1_d" x="83.6362" y="69" width="20.7279" height="30" filterUnits="userSpaceOnUse" color-interpolation-filters="sRGB">
<feFlood flood-opacity="0" result="BackgroundImageFix"/>
<feColorMatrix in="SourceAlpha" type="matrix" values="0 0 0 0 0 0 0 0 0 0 0 0 0 0 0 0 0 0 127 0"/>
<feOffset dx="3" dy="4"/>
<feGaussianBlur stdDeviation="1.5"/>
<feColorMatrix type="matrix" values="0 0 0 0 0.584314 0 0 0 0 0.760784 0 0 0 0 0.113725 0 0 0 0.5 0"/>
<feBlend mode="normal" in2="BackgroundImageFix" result="effect1_dropShadow"/>
<feBlend mode="normal" in="SourceGraphic" in2="effect1_dropShadow" result="shape"/>
</filter>
<filter id="filter2_d" x="90" y="56" width="8" height="18" filterUnits="userSpaceOnUse" color-interpolation-filters="sRGB">
<feFlood flood-opacity="0" result="BackgroundImageFix"/>
<feColorMatrix in="SourceAlpha" type="matrix" values="0 0 0 0 0 0 0 0 0 0 0 0 0 0 0 0 0 0 127 0"/>
<feOffset dx="3" dy="4"/>
<feGaussianBlur stdDeviation="1.5"/>
<feColorMatrix type="matrix" values="0 0 0 0 0.584314 0 0 0 0 0.760784 0 0 0 0 0.113725 0 0 0 0.5 0"/>
<feBlend mode="normal" in2="BackgroundImageFix" result="effect1_dropShadow"/>
<feBlend mode="normal" in="SourceGraphic" in2="effect1_dropShadow" result="shape"/>
</filter>
</defs>
</svg>
