<svg width="97" height="99" viewBox="0 0 97 99" fill="none" xmlns="http://www.w3.org/2000/svg">
<circle cx="25" cy="74" r="25" fill="#95C21D" fill-opacity="0.6"/>
<g filter="url(#filter0_d)">
<path d="M36.0002 19.3962L82.9073 50.4394C83.6235 50.9137 84.5946 50.7212 85.0724 49.9987C93.1412 37.8059 91.0061 21.7813 80.7317 12.0596C81.9117 11.5936 82.9201 10.7813 83.6348 9.70118C85.5408 6.82263 84.7555 2.94706 81.8732 1.041C78.9942 -0.866783 75.118 -0.0788268 73.2121 2.80285C72.4985 3.88111 72.145 5.12484 72.1757 6.39107C59.3573 0.773972 43.7312 4.8811 35.5593 17.2309C35.0833 17.9506 35.2805 18.9199 36.0002 19.3962ZM75.8183 4.5272C76.7655 3.09503 78.7002 2.68738 80.1484 3.64674C81.5887 4.59938 81.9832 6.53529 81.0293 7.97605C81.0292 7.9762 81.029 7.97652 81.0289 7.97667C80.0765 9.41681 78.14 9.81039 76.6989 8.85713C75.2593 7.90527 74.8648 5.96811 75.8183 4.5272ZM74.9743 11.4632C74.9744 11.4633 74.9746 11.4635 74.9749 11.4636C74.9751 11.4636 74.9751 11.4638 74.9752 11.4638C86.7513 19.2573 90.297 34.888 83.291 46.9461L39.065 17.6771C47.4185 6.50638 63.1507 3.63893 74.9743 11.4632Z" fill="black"/>
<path d="M41.5362 60.524C43.0465 61.6791 44.7582 62.9883 46.6391 64.6183C46.9327 64.8728 47.2976 65 47.6624 65C48.0272 65 48.3922 64.8728 48.6858 64.6183C50.6809 62.8889 52.4753 61.5302 54.0584 60.3316C58.0555 57.3049 60.9434 55.1183 60.9434 50.9988C60.9434 46.5839 57.7033 43.1255 53.567 43.1255C50.713 43.1255 48.8522 44.7306 47.7094 46.32C46.6124 44.7264 44.7987 43.1255 41.939 43.1255C37.8018 43.1255 34.561 46.5839 34.561 50.9988C34.561 55.189 37.4868 57.4267 41.5362 60.524ZM41.939 46.2501C45.069 46.2501 46.1066 50.0707 46.1477 50.2271C46.3202 50.909 46.928 51.3885 47.6315 51.4029C47.6421 51.403 47.6527 51.4032 47.6635 51.4032C48.3536 51.4032 48.9649 50.9465 49.1621 50.2824C49.211 50.1177 50.3963 46.2501 53.567 46.2501C55.9907 46.2501 57.8185 48.2915 57.8185 50.9985C57.8185 53.4661 56.1885 54.7986 52.1719 57.8401C50.822 58.8621 49.3225 59.9976 47.6624 61.3857C46.1159 60.0924 44.7054 59.0137 43.4346 58.0418C39.4483 54.993 37.686 53.538 37.686 50.9986C37.686 48.2915 39.5144 46.2501 41.939 46.2501Z" fill="black"/>
<path d="M47.6621 80C48.5251 80 49.2246 79.3004 49.2246 78.4375C49.2246 77.5746 48.5251 76.875 47.6621 76.875C46.7992 76.875 46.0996 77.5746 46.0996 78.4375C46.0996 79.3004 46.7992 80 47.6621 80Z" fill="black"/>
<path d="M11.5692 70.6249H16.2566C17.9797 70.6249 19.3815 72.0268 19.3815 73.7499C19.3815 77.1961 22.1852 79.9998 25.6314 79.9998H40.6312C41.494 79.9998 42.1937 79.3003 42.1937 78.4373C42.1937 77.5744 41.494 76.8748 40.6312 76.8748H25.6314C23.9083 76.8748 22.5065 75.473 22.5065 73.7499C22.5065 72.6119 22.1993 71.5449 21.6657 70.6234H73.6591C73.1255 71.5449 72.8183 72.6119 72.8183 73.7499C72.8183 75.473 71.4165 76.8748 69.6934 76.8748H54.6936C53.8308 76.8748 53.1312 77.5744 53.1312 78.4373C53.1312 79.3003 53.8308 79.9998 54.6936 79.9998H69.6934C73.1396 79.9998 75.9433 77.1961 75.9433 73.7499C75.9433 72.0268 77.3452 70.6249 79.0683 70.6249H83.7557C84.6185 70.6249 85.3182 69.9254 85.3182 69.0625C85.3182 68.1995 84.6185 67.5 83.7557 67.5C81.3254 67.5 14.1972 67.5 11.5693 67.5C10.7065 67.5 10.0068 68.1995 10.0068 69.0625C10.0068 69.9254 10.7062 70.6249 11.5692 70.6249Z" fill="black"/>
</g>
<defs>
<filter id="filter0_d" x="9" y="0" width="88" height="88" filterUnits="userSpaceOnUse" color-interpolation-filters="sRGB">
<feFlood flood-opacity="0" result="BackgroundImageFix"/>
<feColorMatrix in="SourceAlpha" type="matrix" values="0 0 0 0 0 0 0 0 0 0 0 0 0 0 0 0 0 0 127 0"/>
<feOffset dx="3" dy="4"/>
<feGaussianBlur stdDeviation="2"/>
<feColorMatrix type="matrix" values="0 0 0 0 0.584314 0 0 0 0 0.760784 0 0 0 0 0.113725 0 0 0 0.5 0"/>
<feBlend mode="normal" in2="BackgroundImageFix" result="effect1_dropShadow"/>
<feBlend mode="normal" in="SourceGraphic" in2="effect1_dropShadow" result="shape"/>
</filter>
</defs>
</svg>
