<svg width="110" height="93" viewBox="0 0 110 93" fill="none" xmlns="http://www.w3.org/2000/svg">
<circle cx="25" cy="68" r="25" fill="#95C21D" fill-opacity="0.6"/>
<g clip-path="url(#clip0)" filter="url(#filter0_d)">
<path d="M94.8602 50.8786C95.18 48.0469 95.5283 43.041 94.8289 37.9901C94.7402 37.3476 94.1463 36.898 93.505 36.9882C92.8625 37.0769 92.4141 37.6697 92.5032 38.3121C93.1546 43.018 92.8244 47.8041 92.5624 50.2853C91.8268 50.1628 91.0719 50.0978 90.3019 50.0978C88.4579 50.0978 86.6982 50.465 85.0911 51.1285C86.2486 47.6355 86.9457 43.6977 87.0405 39.9661C87.1713 34.8338 86.1908 30.1007 84.1932 26.1454H85.176L86.0118 26.3126C88.3375 27.5427 90.1022 29.7968 91.2597 33.0276C91.4785 33.6383 92.1505 33.9557 92.7611 33.7369C93.3714 33.5183 93.6893 32.8462 93.4705 32.2355C92.7691 30.2776 91.8605 28.6191 90.7569 27.2616L91.3243 27.3751C92.04 27.5182 92.7286 26.9526 92.7286 26.2238V18.7093C92.7286 17.9801 92.0399 17.4148 91.3243 17.5581L86.4666 18.5296V12.447C86.4666 11.967 86.1743 11.5353 85.7285 11.3568L80.1343 9.11917C79.7413 6.79043 77.7116 5.01074 75.2729 5.01074C72.5537 5.01074 70.3415 7.22293 70.3415 9.94214C70.3415 12.6614 72.5537 14.8735 75.2729 14.8735C77.4232 14.8735 79.2552 13.4896 79.9282 11.566L84.118 13.242V18.7873H72.768C72.1194 18.7873 71.5938 19.3127 71.5938 19.9613C71.5938 20.6099 72.1193 21.1356 72.768 21.1356H80.3608V24.971C80.3608 25.6152 80.8794 26.1374 81.5219 26.1445C86.8977 35.3669 84.3702 47.146 81.9765 52.7422C81.9429 52.8208 81.919 52.9011 81.9033 52.9817C81.5488 53.2577 81.2079 53.5505 80.8822 53.8594C80.8521 53.8571 80.8219 53.8549 80.7911 53.8549H70.1748C71.1705 50.7805 71.871 47.1705 71.3388 43.8413C70.7299 40.0338 68.6546 37.1943 65.1752 35.3935V28.7284C65.1752 28.0798 64.6498 27.5543 64.0012 27.5543H50.2246C46.1243 27.5543 42.7884 30.8902 42.7884 34.9905V35.0727C42.7625 35.071 42.7365 35.0688 42.7101 35.0688H42.6318V27.3977H43.9625C44.6111 27.3977 45.1365 26.8723 45.1365 26.2235V19.9615C45.1365 19.3129 44.6111 18.7874 43.9625 18.7874H25.1763C24.5277 18.7874 24.002 19.3129 24.002 19.9615V26.2235C24.002 26.8721 24.5275 27.3977 25.1763 27.3977H26.5069V35.0688H25.1763C24.5277 35.0688 24.002 35.5944 24.002 36.243C24.002 36.8916 24.5275 37.4171 25.1763 37.4171H38.3798C37.4787 37.8713 36.6187 38.3658 35.8044 38.8996C23.753 46.7994 23.9475 58.6447 24.0116 62.537C24.0161 62.8141 24.0238 63.0919 24.0175 63.3689C24.0127 63.5816 23.9869 63.7848 24.0455 63.9942C24.1859 64.495 24.6556 64.8516 25.1761 64.8516H27.8105C28.3444 70.5303 33.1367 74.9895 38.9528 74.9895C44.7689 74.9895 49.5612 70.5303 50.0951 64.8516H64.0012C64.311 64.8516 64.6082 64.7294 64.8279 64.5111C65.1643 64.1775 65.9965 62.94 66.9485 61.213H76.8488C76.6885 62.0499 76.6035 62.9131 76.6035 63.7961C76.6035 64.4447 77.129 64.9703 77.7777 64.9703H79.1704C79.7591 70.5925 84.5265 74.9897 90.3018 74.9897C96.0771 74.9897 100.844 70.5927 101.433 64.9703H102.826C103.474 64.9703 104 64.4449 104 63.7961C104 57.8403 100.179 52.7611 94.8602 50.8786ZM86.466 20.924L90.3797 20.1412V24.7913L86.7825 24.0718C86.6775 24.0205 86.573 23.9684 86.466 23.9201V20.924ZM75.2726 12.5253C73.8482 12.5253 72.6894 11.3665 72.6894 9.94214C72.6894 8.51777 73.8482 7.35902 75.2726 7.35902C76.6969 7.35902 77.8557 8.51777 77.8557 9.94214C77.8557 11.3665 76.6969 12.5253 75.2726 12.5253ZM84.1177 23.797H82.7088V21.1356H82.7871H84.1177V23.797ZM45.1364 34.9905C45.1364 32.1849 47.4187 29.9026 50.2243 29.9026H62.8268V35.0688H45.1364V34.9905ZM26.3502 25.0495V21.1357H42.7881V25.0495H26.3502ZM28.855 35.0688V27.3977H40.2833V35.0688H28.855ZM38.9526 72.6412C34.4326 72.6412 30.6962 69.2328 30.1727 64.8516H32.8609C33.3634 67.76 35.903 69.9798 38.9526 69.9798C42.0023 69.9798 44.5418 67.76 45.0443 64.8516H47.7325C47.209 69.2327 43.4725 72.6412 38.9526 72.6412ZM35.2659 64.8514H42.6392C42.1795 66.4545 40.7014 67.6314 38.9525 67.6314C37.2036 67.6314 35.7256 66.4545 35.2659 64.8514ZM66.9027 55.925C65.5688 59.1152 64.0523 61.5878 63.4224 62.5031H26.3597C26.3595 62.5016 26.3595 62.4999 26.3595 62.4984C26.2945 58.548 26.1222 48.0541 37.0915 40.8635C39.0931 39.5515 41.4048 38.4938 43.9625 37.7201C44.1589 37.6607 44.3281 37.5541 44.4618 37.4169H63.981C66.7748 38.8254 68.4057 40.9449 68.9649 43.8963C69.7298 47.9328 68.2657 52.6657 66.9027 55.925ZM77.5223 58.8645H68.1563C68.4199 58.3144 68.681 57.7419 68.9326 57.1541C69.063 56.8492 69.1943 56.5313 69.3252 56.2031H78.906C78.3524 57.0314 77.8868 57.923 77.5223 58.8645ZM90.3016 72.6412C85.523 72.6412 81.6201 68.8317 81.464 64.0903C82.6308 62.0449 83.984 60.6205 85.6279 59.7538C84.6882 60.8386 84.1177 62.2516 84.1177 63.7961C84.1177 67.2058 86.8918 69.9798 90.3014 69.9798C93.7111 69.9798 96.4852 67.2058 96.4852 63.7961C96.4852 62.4139 96.0291 61.1361 95.2599 60.1053C96.971 61.1609 98.2394 62.6625 99.1397 64.0673C98.9956 68.8191 95.0878 72.6412 90.3016 72.6412ZM86.466 63.7959C86.466 61.681 88.1864 59.9605 90.3014 59.9605C92.4164 59.9605 94.1369 61.681 94.1369 63.7959C94.1369 65.9109 92.4164 67.6314 90.3014 67.6314C88.1864 67.6314 86.466 65.9109 86.466 63.7959ZM101.002 62.6219C98.3419 58.5775 94.5641 56.3599 90.3016 56.3599C84.2147 56.3599 81.2783 59.7695 79.5988 62.6219H79.0119C79.6015 56.9131 84.4397 52.446 90.3016 52.446C96.1635 52.446 101.002 56.9131 101.591 62.6219H101.002Z" fill="black"/>
<path d="M62.7485 42.583H51.4768C50.8282 42.583 50.3027 43.1085 50.3027 43.7572C50.3027 44.4058 50.8282 44.9313 51.4768 44.9313H62.7485C63.3971 44.9313 63.9227 44.4058 63.9227 43.7572C63.9227 43.1086 63.3971 42.583 62.7485 42.583Z" fill="black"/>
<path d="M60.2437 50.0977H43.9623C43.3137 50.0977 42.7881 50.6231 42.7881 51.2717C42.7881 51.9203 43.3137 52.4459 43.9623 52.4459H60.2437C60.8923 52.4459 61.4179 51.9203 61.4179 51.2717C61.4179 50.6231 60.8924 50.0977 60.2437 50.0977Z" fill="black"/>
<path d="M56.4865 57.6123H36.448C35.7994 57.6123 35.2739 58.1378 35.2739 58.7865C35.2739 59.4351 35.7994 59.9606 36.448 59.9606H56.4865C57.1351 59.9606 57.6608 59.4351 57.6608 58.7865C57.6608 58.1378 57.1351 57.6123 56.4865 57.6123Z" fill="black"/>
</g>
<defs>
<filter id="filter0_d" x="24" y="0" width="86" height="87" filterUnits="userSpaceOnUse" color-interpolation-filters="sRGB">
<feFlood flood-opacity="0" result="BackgroundImageFix"/>
<feColorMatrix in="SourceAlpha" type="matrix" values="0 0 0 0 0 0 0 0 0 0 0 0 0 0 0 0 0 0 127 0"/>
<feOffset dx="3" dy="4"/>
<feGaussianBlur stdDeviation="1.5"/>
<feColorMatrix type="matrix" values="0 0 0 0 0.584314 0 0 0 0 0.760784 0 0 0 0 0.113725 0 0 0 0.5 0"/>
<feBlend mode="normal" in2="BackgroundImageFix" result="effect1_dropShadow"/>
<feBlend mode="normal" in="SourceGraphic" in2="effect1_dropShadow" result="shape"/>
</filter>
<clipPath id="clip0">
<rect width="80" height="80" fill="white" transform="translate(24)"/>
</clipPath>
</defs>
</svg>
