<svg width="96" height="81" viewBox="0 0 96 81" fill="none" xmlns="http://www.w3.org/2000/svg">
<circle cx="25" cy="55" r="25" fill="#95C21D" fill-opacity="0.6"/>
<g clip-path="url(#clip0)" filter="url(#filter0_d)">
<path d="M10.4844 21.7943C10.7278 22.388 11.3358 22.7813 11.9775 22.759C12.6244 22.7365 13.1941 22.308 13.4058 21.6991C13.6167 21.0929 13.4114 20.396 12.9178 19.9899C12.4002 19.564 11.6442 19.5204 11.0808 19.8838C10.455 20.2871 10.1978 21.1065 10.4844 21.7943Z" fill="black"/>
<path d="M74.8537 33.769C75.0069 33.3743 75.148 32.9806 75.2761 32.5895C76.1386 29.9582 76.4909 27.2832 76.3536 24.4117C76.1258 19.655 73.9244 15.0819 70.155 11.5347C66.5361 8.12906 61.9378 6.17578 57.5392 6.17578C50.9861 6.17578 45.8647 9.83405 43.3951 12.0148C43.2113 12.1772 42.9435 12.1806 42.7585 12.0225C40.1988 9.8389 34.9643 6.17578 28.6668 6.17578C23.4631 6.17578 17.9235 8.98343 14.21 13.503C13.6621 14.1697 13.7584 15.1544 14.4251 15.7022C15.092 16.2501 16.0765 16.1537 16.6243 15.487C19.7596 11.6714 24.3742 9.30093 28.6668 9.30093C33.9621 9.30093 38.4979 12.4958 40.7302 14.4001C42.0886 15.5589 44.1235 15.5406 45.4635 14.3575C47.6021 12.469 52.0149 9.30093 57.5391 9.30093C64.6017 9.30093 72.8136 15.8272 73.232 24.5612C73.3508 27.0454 73.0478 29.3532 72.3061 31.6164C72.1305 32.1523 71.9326 32.6807 71.7075 33.2148C71.0798 33.1553 70.4441 33.1248 69.8012 33.1248C58.6638 33.1248 49.6027 42.2537 49.6027 53.4746C49.6027 54.0052 49.623 54.5312 49.6628 55.0518C48.1172 56.3122 46.8611 57.3443 45.8115 58.2327C44.2263 59.5746 41.9257 59.5743 40.3408 58.2318C38.923 57.0305 37.0796 55.5285 35.128 53.9382C28.0838 48.198 18.4364 40.3367 16.114 36.391C14.5871 33.797 13.6748 31.4474 13.2429 28.9968C13.1931 28.7135 13.1489 28.4256 13.112 28.1407C13.0009 27.285 12.2171 26.6812 11.3614 26.7923C10.5056 26.9034 9.90184 27.6873 10.0129 28.5429C10.0559 28.8745 10.1073 29.2096 10.1654 29.5392C10.6642 32.369 11.6986 35.0499 13.4209 37.976C16.0276 42.4049 25.5237 50.1429 33.154 56.3605C35.0938 57.9411 36.9258 59.4341 38.3208 60.616C39.6987 61.7833 41.3874 62.3668 43.0768 62.3668C44.7647 62.3668 46.4532 61.7836 47.8305 60.6179C48.5322 60.024 49.3316 59.3616 50.253 58.6057C52.516 67.3508 60.4224 73.8244 69.8012 73.8244C80.9387 73.8244 89.9996 64.6955 89.9996 53.4746C90 44.0106 83.5543 36.0346 74.8537 33.769ZM69.8016 70.6992C60.387 70.6992 52.7278 62.9722 52.7278 53.4744C52.7278 43.9766 60.387 36.2496 69.8016 36.2496C79.2159 36.2496 86.8751 43.9766 86.8751 53.4744C86.875 62.9722 79.2159 70.6992 69.8016 70.6992Z" fill="black"/>
<path d="M77.2857 48.106H75.1383V45.926C75.1383 44.0091 73.5857 42.4497 71.6775 42.4497H67.9258C66.0175 42.4497 64.465 44.0091 64.465 45.926V48.106H62.3175C60.4092 48.106 58.8567 49.6653 58.8567 51.5822V55.3674C58.8567 57.2842 60.4092 58.8436 62.3175 58.8436H64.465V61.0238C64.465 62.9405 66.0175 64.5 67.9258 64.5H71.6775C73.5857 64.5 75.1383 62.9406 75.1383 61.0238V58.8436H77.2857C79.194 58.8436 80.7465 57.2842 80.7465 55.3674V51.5822C80.7467 49.6653 79.194 48.106 77.2857 48.106ZM77.6217 55.3672C77.6217 55.5608 77.4711 55.7185 77.2859 55.7185H73.5759C72.7131 55.7185 72.0134 56.418 72.0134 57.281V61.0236C72.0134 61.2172 71.8628 61.3749 71.6776 61.3749H67.9259C67.7406 61.3749 67.5901 61.2174 67.5901 61.0236V57.281C67.5901 56.418 66.8904 55.7185 66.0276 55.7185H62.3176C62.1323 55.7185 61.9818 55.561 61.9818 55.3672V51.5821C61.9818 51.3883 62.1325 51.2308 62.3176 51.2308H66.0276C66.8904 51.2308 67.5901 50.5313 67.5901 49.6683V45.9258C67.5901 45.7321 67.7408 45.5745 67.9259 45.5745H71.6776C71.8628 45.5745 72.0134 45.7321 72.0134 45.9258V49.6683C72.0134 50.5313 72.7131 51.2308 73.5759 51.2308H77.2859C77.4712 51.2308 77.6217 51.3883 77.6217 51.5821V55.3672Z" fill="black"/>
</g>
<defs>
<filter id="filter0_d" x="10" y="0" width="86" height="87" filterUnits="userSpaceOnUse" color-interpolation-filters="sRGB">
<feFlood flood-opacity="0" result="BackgroundImageFix"/>
<feColorMatrix in="SourceAlpha" type="matrix" values="0 0 0 0 0 0 0 0 0 0 0 0 0 0 0 0 0 0 127 0"/>
<feOffset dx="3" dy="4"/>
<feGaussianBlur stdDeviation="1.5"/>
<feColorMatrix type="matrix" values="0 0 0 0 0.584314 0 0 0 0 0.760784 0 0 0 0 0.113725 0 0 0 0.5 0"/>
<feBlend mode="normal" in2="BackgroundImageFix" result="effect1_dropShadow"/>
<feBlend mode="normal" in="SourceGraphic" in2="effect1_dropShadow" result="shape"/>
</filter>
<clipPath id="clip0">
<rect width="80" height="80" fill="white" transform="translate(10)"/>
</clipPath>
</defs>
</svg>
