<svg width="89" height="105" viewBox="0 0 89 105" fill="none" xmlns="http://www.w3.org/2000/svg">
<circle cx="25" cy="80" r="25" fill="#95C21D" fill-opacity="0.6"/>
<g filter="url(#filter0_d)">
<path d="M32.6609 67.8772V68.6433C32.6609 69.2907 33.1856 69.8152 33.8328 69.8152H64.167C64.8142 69.8152 65.3389 69.2907 65.3389 68.6433V67.8772C65.3389 63.7854 63.2406 59.8049 59.4304 56.6693C56.529 54.2815 52.8246 52.9663 48.9996 52.9663C45.1748 52.9663 41.4704 54.2813 38.5692 56.6691C34.7592 59.8046 32.6609 63.7851 32.6609 67.8772ZM40.0585 58.4788C42.5414 56.4354 45.7168 55.3101 48.9996 55.3101C52.2826 55.3101 55.4581 56.4355 57.9411 58.479C61.1167 61.0926 62.8545 64.1938 62.987 67.4716H35.0128C35.1454 64.1935 36.8831 61.0921 40.0585 58.4788Z" fill="black"/>
<path d="M28.111 7.89625V12.4869C28.111 17.7472 29.5292 22.9431 32.2124 27.513C32.54 28.0709 33.2582 28.2578 33.8163 27.9302C34.3744 27.6023 34.5613 26.8844 34.2335 26.3261C31.7614 22.1159 30.4547 17.3303 30.4547 12.4869V7.89906L67.5455 7.89922V12.4872C67.5455 19.7394 64.6939 26.6155 59.5164 31.8483C59.5164 31.8484 59.5163 31.8484 59.5163 31.8486C58.4658 32.9105 57.3185 33.9 56.1058 34.79C54.4447 36.0094 53.453 37.9573 53.453 40.0013C53.453 42.0455 54.4414 43.9909 56.0969 45.2056C60.7682 48.6327 64.2146 53.2878 66.0635 58.668C66.2305 59.1539 66.685 59.4592 67.1716 59.4592C67.2978 59.4592 67.4264 59.4386 67.5525 59.3953C68.1646 59.185 68.4902 58.5183 68.2799 57.9062C66.275 52.072 62.5414 47.0267 57.4832 43.3159C56.4271 42.5411 55.7966 41.3019 55.7966 40.0011C55.7966 38.7006 56.4307 37.4589 57.4924 36.6794C58.8039 35.7169 60.0453 34.6459 61.1822 33.4969C61.1822 33.4969 61.1824 33.4967 61.1822 33.497C66.7969 27.8222 69.8891 20.3608 69.8891 12.4872V7.89625C71.9897 7.83687 73.681 6.08984 73.681 3.94953C73.681 1.77172 71.9307 0 69.7791 0H28.221C26.061 0 24.3188 1.76984 24.3191 3.94984C24.3192 6.09016 26.0105 7.83687 28.111 7.89625ZM28.221 2.34375H69.7791C70.6383 2.34375 71.3374 3.06406 71.3374 3.94937C71.3374 4.83484 70.6383 5.55516 69.7791 5.55516H28.221C27.3617 5.55516 26.6628 4.83484 26.6627 3.94969C26.6628 3.04813 27.3742 2.34375 28.221 2.34375Z" fill="black"/>
<path d="M69.8888 72.1038C69.8888 67.2745 69.956 65.9455 69.6044 63.4339C69.5147 62.793 68.9236 62.347 68.2814 62.4358C67.6405 62.5255 67.1936 63.1178 67.2833 63.7589C67.6047 66.0547 67.545 67.1903 67.545 72.101H48.9997L30.4544 72.1008C30.4544 67.0222 30.1353 62.8547 32.5513 57.046C32.5516 57.045 32.5521 57.0441 32.5524 57.0431C34.5027 52.3552 37.7358 48.2619 41.9022 45.2055C43.5582 43.9906 44.5469 42.0449 44.5469 40.0006C44.5469 37.9567 43.5555 36.0088 41.8949 34.79C40.2096 33.553 38.6635 32.135 37.2993 30.5752C36.873 30.0881 36.1328 30.0385 35.6457 30.4645C35.1585 30.8906 35.1089 31.631 35.535 32.1181C37.0118 33.8067 38.685 35.3413 40.5082 36.6792C41.5696 37.4583 42.2032 38.6999 42.2032 40.0005C42.2032 41.3011 41.5724 42.5405 40.516 43.3155C36.005 46.6247 32.503 51.06 30.3885 56.1427C30.3882 56.1438 30.3877 56.1447 30.3872 56.1458C27.7949 62.3788 28.1107 66.8211 28.1107 72.1035C27.106 72.1316 26.1664 72.5406 25.4547 73.2649C24.7224 74.0102 24.3189 74.9994 24.3191 76.0506C24.3192 78.2285 26.0697 80 28.221 80H69.7791C71.9307 80 73.6811 78.2283 73.6811 76.0506C73.681 73.9102 71.9897 72.163 69.8888 72.1038ZM69.7791 77.6563H28.221C27.3617 77.6563 26.6628 76.9361 26.6627 76.0508C26.6627 75.1511 27.3721 74.4449 28.221 74.4449H48.9997H69.7791C70.6383 74.4449 71.3374 75.1652 71.3374 76.0506C71.3372 76.936 70.6383 77.6563 69.7791 77.6563Z" fill="black"/>
<path d="M50.1716 36.3281C50.1716 35.6808 49.6469 35.1562 48.9997 35.1562C48.3526 35.1562 47.8279 35.6808 47.8279 36.3281V37.8906C47.8279 38.538 48.3526 39.0625 48.9997 39.0625C49.6469 39.0625 50.1716 38.538 50.1716 37.8906V36.3281Z" fill="black"/>
<path d="M48.9997 51.25C49.6469 51.25 50.1716 50.7255 50.1716 50.0781V48.5156C50.1716 47.8683 49.6469 47.3438 48.9997 47.3438C48.3526 47.3438 47.8279 47.8683 47.8279 48.5156V50.0781C47.8279 50.7255 48.3526 51.25 48.9997 51.25Z" fill="black"/>
<path d="M48.9997 41.25C48.3526 41.25 47.8279 41.7745 47.8279 42.4219V43.9844C47.8279 44.6317 48.3526 45.1562 48.9997 45.1562C49.6469 45.1562 50.1716 44.6317 50.1716 43.9844V42.4219C50.1716 41.7745 49.6469 41.25 48.9997 41.25Z" fill="black"/>
<path d="M65.0622 16.2032C65.1684 15.4955 64.6198 14.8574 63.9033 14.8574H34.0972C33.3815 14.8574 32.8319 15.4946 32.9383 16.2032C33.7275 21.459 36.1458 26.2737 39.9317 30.1271C42.3083 32.5457 45.6137 33.933 49.0005 33.933C52.3869 33.933 55.6923 32.5459 58.0689 30.1273C61.8548 26.274 64.2731 21.4593 65.0622 16.2032ZM49.0003 31.5894C46.2383 31.5894 43.5422 30.4577 41.6034 28.4846C38.4926 25.3184 36.3994 21.4404 35.4995 17.2012H62.5008C61.6011 21.4407 59.5078 25.3187 56.397 28.4846C54.4583 30.4579 51.7622 31.5894 49.0003 31.5894Z" fill="black"/>
</g>
<defs>
<filter id="filter0_d" x="9" y="0" width="86" height="87" filterUnits="userSpaceOnUse" color-interpolation-filters="sRGB">
<feFlood flood-opacity="0" result="BackgroundImageFix"/>
<feColorMatrix in="SourceAlpha" type="matrix" values="0 0 0 0 0 0 0 0 0 0 0 0 0 0 0 0 0 0 127 0"/>
<feOffset dx="3" dy="4"/>
<feGaussianBlur stdDeviation="1.5"/>
<feColorMatrix type="matrix" values="0 0 0 0 0.584314 0 0 0 0 0.760784 0 0 0 0 0.113725 0 0 0 0.5 0"/>
<feBlend mode="normal" in2="BackgroundImageFix" result="effect1_dropShadow"/>
<feBlend mode="normal" in="SourceGraphic" in2="effect1_dropShadow" result="shape"/>
</filter>
</defs>
</svg>
