<svg width="97" height="88" viewBox="0 0 97 88" fill="none" xmlns="http://www.w3.org/2000/svg">
<circle cx="25" cy="63" r="25" fill="#95C21D" fill-opacity="0.6"/>
<g filter="url(#filter0_d)">
<path d="M86.7218 37.5683C85.8278 36.4558 85.511 34.9713 85.8745 33.5972C87.8218 26.2352 84.8284 18.5152 78.4256 14.3872C72.8612 10.7997 65.8446 10.6388 60.114 13.9677C59.5543 14.2928 59.3643 15.01 59.6893 15.5696C60.0145 16.1293 60.7317 16.3194 61.2912 15.9943C66.2559 13.11 72.3349 13.2489 77.1556 16.3569C82.7023 19.9332 85.2957 26.6205 83.6087 32.9978C83.0554 35.0886 83.5364 37.3461 84.8948 39.0364C88.2742 43.2416 88.579 49.1157 85.6535 53.6532C82.0345 59.2664 76.2703 59.3635 75.8878 59.3635C75.8832 59.3635 70.6762 59.7474 64.0614 61.8096C59.4151 63.258 55.5624 65.0471 52.3984 66.9116C54.16 63.7183 56.2249 59.9253 58.291 56.0158C62.2657 54.1444 67.3699 52.4991 73.2768 52.286C73.9237 52.2627 74.4289 51.7194 74.4057 51.0725C74.3824 50.4255 73.8378 49.9222 73.1923 49.9436C68.1339 50.1263 63.6582 51.3044 60.0173 52.72C61.6924 49.4925 63.3103 46.281 64.7048 43.3503C66.7809 42.7061 69.6185 42.0928 73.1053 41.9832C73.7521 41.9628 74.2601 41.4219 74.2396 40.7753C74.2193 40.1283 73.679 39.6205 73.0318 39.6408C70.7359 39.713 68.6934 39.9853 66.911 40.3577C68.2099 38.4243 69.3406 35.7594 69.3874 32.3016C69.4743 25.8925 65.4679 20.1722 59.4178 18.0678C58.0698 17.5986 57.0137 16.5083 56.5929 15.1505C54.339 7.87644 47.7067 2.91988 40.089 2.81659C36.9576 2.77363 33.871 3.56909 31.166 5.11613C30.6042 5.43753 30.4092 6.15331 30.7304 6.71488C31.0518 7.27691 31.7678 7.47175 32.3293 7.1505C34.6709 5.81144 37.3378 5.12269 40.0573 5.15988C46.6562 5.24941 52.402 9.54316 54.3545 15.8443C54.9948 17.91 56.5996 19.5686 58.6479 20.2813C63.7432 22.0536 67.1173 26.8714 67.0442 32.2699C66.9526 39.0274 62.0032 42.1616 61.7848 42.2963C61.7626 42.3097 57.5803 45.3797 53.0657 50.6374C49.8951 54.33 47.5779 57.8903 45.8846 61.1494C45.6876 57.5738 45.4256 53.253 45.1007 48.8053C47.4829 45.0988 50.941 40.9838 55.8265 37.6757C56.3624 37.3128 56.5028 36.5843 56.1398 36.0485C55.777 35.5124 55.0482 35.3724 54.5124 35.7352C50.3206 38.5735 47.151 41.9469 44.8153 45.0785C44.6285 42.7571 44.4251 40.4485 44.2049 38.24C44.0781 36.9672 43.9496 35.7699 43.8198 34.6453C45.2946 32.9296 47.3696 30.9408 50.2164 29.0328C50.754 28.6725 50.8976 27.9446 50.5373 27.4072C50.1768 26.8694 49.4487 26.726 48.9115 27.0863C46.6659 28.5914 44.8568 30.0655 43.4142 31.4089C43.1874 29.7521 42.9574 28.3189 42.7257 27.1253C42.0629 23.7121 41.3771 21.7319 39.8324 21.7111C39.8243 21.711 39.8162 21.711 39.8081 21.711C38.2803 21.711 37.5446 23.6688 36.7934 27.0449C36.5195 28.276 36.2407 29.7644 35.9587 31.4933C34.567 29.9996 32.8104 28.4003 30.611 26.838C30.0837 26.4633 29.352 26.5872 28.9773 27.1146C28.6024 27.6422 28.7264 28.3739 29.254 28.7485C32.0979 30.7686 34.1224 32.8493 35.4956 34.5346C35.3354 35.6546 35.1745 36.8471 35.0134 38.1153C34.7335 40.3171 34.4676 42.6193 34.2179 44.9347C31.9681 41.7408 28.891 38.2828 24.7778 35.3317C24.2518 34.9543 23.5196 35.0747 23.1426 35.6008C22.7653 36.1266 22.8857 36.8589 23.4117 37.236C28.2095 40.6782 31.5537 44.8786 33.8326 48.6424C33.3868 53.0836 33.0073 57.4003 32.7131 60.9721C30.604 56.6424 28.0346 52.9933 25.8198 50.2675C21.4503 44.89 17.432 41.7657 17.394 41.7374C17.3728 41.7216 17.3512 41.7066 17.3289 41.6922C17.0971 41.54 12.2532 38.2725 12.3448 31.5275C12.4179 26.1291 15.9217 21.4046 21.0631 19.7711C23.1298 19.1146 24.7795 17.5002 25.4753 15.4522C26.1564 13.4483 27.2318 11.6375 28.672 10.0705C29.1099 9.59378 29.0785 8.85269 28.602 8.41472C28.1254 7.97644 27.3842 8.00816 26.9464 8.48456C25.2843 10.2933 24.0428 12.3838 23.2562 14.6983C22.7987 16.0439 21.7135 17.1055 20.3532 17.5378C14.2485 19.4775 10.0884 25.0869 10.0015 31.4963C9.89713 39.1874 15.2395 43.1055 16.0026 43.6238C16.4714 43.9896 31.0221 55.5649 34.0482 72.2719C34.4709 74.6053 36.4234 76.3488 38.7567 76.5305C39.544 76.9692 40.4117 77.1849 41.276 77.1849C42.6554 77.1849 44.0242 76.6388 45.0342 75.5875C56.8315 63.3088 75.4301 61.7421 75.9173 61.7058C76.8214 61.6925 83.472 61.3627 87.6237 54.9233C91.0968 49.536 90.7345 42.5616 86.7218 37.5683ZM41.9498 71.9302C41.6703 73.2658 40.4831 74.2152 39.1206 74.2038C37.7609 74.1853 36.5973 73.1972 36.354 71.8543C35.964 69.7014 35.3893 67.6349 34.6903 65.6686C35.1318 59.9139 36.0254 49.1155 37.1676 39.7808C38.3301 30.2794 39.2435 26.4382 39.7896 24.8869C40.2934 26.4524 41.1023 30.3169 42.0067 39.8464C42.8954 49.2119 43.496 60.036 43.7812 65.7991C42.8873 68.115 42.3146 70.1872 41.9498 71.9302ZM43.9518 73.3474C44.0765 73.0489 46.196 58.0202 60.7053 46.2066C56.5407 54.568 51.2695 64.1543 48.1482 69.7382C46.4734 70.9936 45.0857 72.2227 43.9518 73.3474Z" fill="black"/>
</g>
<defs>
<filter id="filter0_d" x="9" y="0" width="88" height="88" filterUnits="userSpaceOnUse" color-interpolation-filters="sRGB">
<feFlood flood-opacity="0" result="BackgroundImageFix"/>
<feColorMatrix in="SourceAlpha" type="matrix" values="0 0 0 0 0 0 0 0 0 0 0 0 0 0 0 0 0 0 127 0"/>
<feOffset dx="3" dy="4"/>
<feGaussianBlur stdDeviation="2"/>
<feColorMatrix type="matrix" values="0 0 0 0 0.584314 0 0 0 0 0.760784 0 0 0 0 0.113725 0 0 0 0.5 0"/>
<feBlend mode="normal" in2="BackgroundImageFix" result="effect1_dropShadow"/>
<feBlend mode="normal" in="SourceGraphic" in2="effect1_dropShadow" result="shape"/>
</filter>
</defs>
</svg>
