<svg width="112" height="90" viewBox="0 0 112 90" fill="none" xmlns="http://www.w3.org/2000/svg">
<circle cx="25" cy="65" r="25" fill="#95C21D" fill-opacity="0.6"/>
<g clip-path="url(#clip0)" filter="url(#filter0_d)">
<path d="M101.586 40.8289H98.8092C98.5492 36.6064 97.5208 32.5311 95.741 28.7C95.4694 28.1134 94.7736 27.8595 94.187 28.1311C93.6005 28.4033 93.3459 29.0991 93.6182 29.6857C95.2533 33.2068 96.2073 36.9501 96.4636 40.8289H42.8589C42.2125 40.8289 41.6888 41.3525 41.6888 41.9989C41.6888 42.6453 42.2125 43.1689 42.8589 43.1689H101.586C102.178 43.1689 102.659 43.6505 102.659 44.2426V45.6708C102.659 46.2628 102.178 46.7444 101.586 46.7444H28.4137C27.8217 46.7444 27.3407 46.2628 27.3407 45.6708V44.2426C27.3407 43.6505 27.8217 43.1689 28.4137 43.1689H37.4042C38.0505 43.1689 38.5748 42.6453 38.5748 41.9989C38.5748 41.3525 38.0505 40.8289 37.4042 40.8289H33.5364C34.0521 33.0548 37.3859 25.8228 43.0048 20.3528C48.4198 15.0818 55.4169 11.9788 62.8949 11.4868C62.8992 11.4868 62.9034 11.4874 62.9077 11.4868C63.2263 11.4661 63.5413 11.4502 63.8525 11.4386C63.9148 11.4368 63.9764 11.4337 64.0387 11.4319C64.1498 11.4282 64.2603 11.4258 64.3695 11.4233C64.5795 11.4197 64.7894 11.416 65 11.416C65.2795 11.416 65.5591 11.4215 65.838 11.4288C65.9204 11.4313 66.0022 11.4337 66.0852 11.4362C66.3 11.4435 66.5143 11.4545 66.7285 11.4661C66.842 11.4722 66.9556 11.4783 67.0697 11.4856C76.6772 12.1167 85.5164 17.113 91.0168 25.1245C91.3824 25.6567 92.1112 25.7928 92.644 25.4266C93.1769 25.061 93.3124 24.3323 92.9462 23.7994C87.5336 15.9155 79.1089 10.752 69.7974 9.42017C70.3809 8.5144 70.7086 7.44812 70.7086 6.33118C70.7086 5.69519 70.4248 4.5227 68.5242 3.82324C67.5751 3.47412 66.3232 3.28125 65 3.28125C63.6761 3.28125 62.4243 3.47412 61.4752 3.82324C59.5746 4.5227 59.2914 5.69519 59.2914 6.33118C59.2914 7.44507 59.6179 8.50952 60.1978 9.41345C53.1281 10.4138 46.571 13.6145 41.3721 18.6755C35.2985 24.588 31.7102 32.4176 31.1908 40.8282H28.4137C26.5314 40.8289 25 42.3602 25 44.2426V45.6708C25 47.5537 26.5314 49.0851 28.4137 49.0851H41.0205C40.3912 49.516 39.7882 49.9994 39.2236 50.5359L39.2004 50.5579C39.1644 50.5914 39.1302 50.6274 39.0991 50.6659L33.5431 57.4127C32.8461 56.9702 32.0209 56.8091 31.2067 56.9653C30.3577 57.1277 29.6234 57.6111 29.1388 58.3264L26.9537 61.5485C25.9546 63.0225 26.3403 65.036 27.8131 66.0364L42.7649 76.1938C43.3069 76.5619 43.9331 76.7535 44.5746 76.7535C44.7784 76.7535 44.9841 76.734 45.1892 76.6949C46.0376 76.5326 46.7719 76.0492 47.2565 75.3339L49.4415 72.1118C50.4407 70.6378 50.0555 68.6243 48.5828 67.6239L48.4973 67.5659C49.538 66.3849 50.9253 65.5383 52.4347 65.1892C55.6152 64.4525 59.3579 64.9268 61.8964 65.3473C65.0366 65.8673 68.335 65.6897 71.4349 64.8334L75.744 63.6426C78.6145 62.8491 81.2561 61.5131 83.5962 59.671C83.6139 59.657 83.631 59.6429 83.6481 59.6277L91.0461 53.0756C92.3071 52.1106 92.5818 50.4395 92.1466 49.0851H101.586C103.469 49.0851 105 47.5537 105 45.6714V44.2426C105 42.3602 103.469 40.8289 101.586 40.8289ZM65 5.62195C66.9708 5.62195 68.1519 6.10962 68.3679 6.38062C68.3521 7.49084 67.7905 8.51501 66.8768 9.12903C66.6467 9.11682 66.4197 9.10706 66.1932 9.09851C66.1169 9.09607 66.0406 9.09241 65.9644 9.09058C65.6378 9.08081 65.3156 9.07593 65 9.07593C64.776 9.07593 64.5477 9.07898 64.3176 9.08386C64.2065 9.08569 64.0948 9.08875 63.9832 9.09241C63.8501 9.09668 63.7158 9.10095 63.5815 9.10645C63.4283 9.11316 63.2751 9.11987 63.1226 9.12842C62.2089 8.5144 61.6479 7.49023 61.6321 6.38062C61.8481 6.10962 63.0292 5.62195 65 5.62195ZM73.3923 49.6497C73.3051 49.4519 73.2007 49.2639 73.0829 49.0851H84.3079L79.4543 52.2974L72.536 54.2987L72.301 54.3042C73.6328 53.194 74.1187 51.2982 73.3923 49.6497ZM60.7019 49.0851L59.0131 49.4373L57.7075 49.0851H60.7019ZM47.5043 70.7983L45.3198 74.0204C45.1862 74.2181 44.9835 74.3512 44.7491 74.3964C44.5154 74.4409 44.2773 74.3921 44.0802 74.2578L29.1284 64.1003C28.7219 63.8245 28.6157 63.269 28.8916 62.8625L31.0767 59.6399C31.2103 59.4427 31.4124 59.3091 31.6467 59.2645C31.7035 59.2535 31.7603 59.248 31.8164 59.248C31.9934 59.248 32.1661 59.3011 32.3157 59.4031L33.1232 59.9512C33.1232 59.9518 33.1238 59.9518 33.1238 59.9518L47.2675 69.5599C47.674 69.8358 47.7802 70.3918 47.5043 70.7983ZM89.61 51.2274C89.5819 51.2476 89.5551 51.2695 89.5288 51.2927L82.1228 57.8528C80.0348 59.4904 77.6788 60.6793 75.1208 61.3861L70.8118 62.5769C68.0371 63.3441 65.0867 63.5034 62.2797 63.0383C59.5441 62.5854 55.4938 62.0782 51.9067 62.9089C49.8291 63.3899 47.9321 64.5837 46.5521 66.2439L35.4907 58.7299L40.8594 52.2101C42.89 50.293 45.4651 49.1547 47.9309 49.0851H47.9785C48.7433 49.0723 49.5526 49.2975 50.4089 49.5374C50.5811 49.585 50.7526 49.6332 50.9247 49.6796L58.6737 51.77C58.8513 51.8176 59.0375 51.8231 59.2175 51.7853L69.3665 49.6692C69.8267 49.574 70.3101 49.6674 70.6927 49.9268C70.9399 50.0946 71.1328 50.3253 71.2506 50.5933C71.5985 51.3824 71.2708 52.309 70.4932 52.7094L67.0306 54.5428C66.5515 54.7968 66.3098 55.3461 66.4459 55.871C66.5826 56.3965 67.0605 56.7542 67.6038 56.7468L72.7399 56.6357C72.8418 56.6333 72.9425 56.618 73.0396 56.59L80.2765 54.4965C80.3906 54.4635 80.4987 54.4135 80.5975 54.3481L87.8986 49.5154C88.5114 49.137 89.3268 48.8257 89.7607 49.4659C90.0989 49.964 90.1068 50.8606 89.61 51.2274Z" fill="black"/>
</g>
<defs>
<filter id="filter0_d" x="24" y="0" width="88" height="88" filterUnits="userSpaceOnUse" color-interpolation-filters="sRGB">
<feFlood flood-opacity="0" result="BackgroundImageFix"/>
<feColorMatrix in="SourceAlpha" type="matrix" values="0 0 0 0 0 0 0 0 0 0 0 0 0 0 0 0 0 0 127 0"/>
<feOffset dx="3" dy="4"/>
<feGaussianBlur stdDeviation="2"/>
<feColorMatrix type="matrix" values="0 0 0 0 0.584314 0 0 0 0 0.760784 0 0 0 0 0.113725 0 0 0 0.5 0"/>
<feBlend mode="normal" in2="BackgroundImageFix" result="effect1_dropShadow"/>
<feBlend mode="normal" in="SourceGraphic" in2="effect1_dropShadow" result="shape"/>
</filter>
<clipPath id="clip0">
<rect width="80" height="80" fill="white" transform="translate(25)"/>
</clipPath>
</defs>
</svg>
