<svg width="105" height="95" viewBox="0 0 105 95" fill="none" xmlns="http://www.w3.org/2000/svg">
<circle cx="25" cy="70" r="25" fill="#95C21D" fill-opacity="0.6"/>
<g clip-path="url(#clip0)" filter="url(#filter0_d)">
<path d="M58.5989 7.20542C58.344 6.9584 57.9937 6.82639 57.6422 6.84207C55.3484 6.93226 53.0611 7.25378 50.8458 7.8001L51.4718 10.3383C53.0781 9.94227 54.7249 9.67434 56.3861 9.5371V34.255H28.3197C28.6634 32.6344 29.1366 31.0398 29.7312 29.4963L27.2937 28.5552C26.4481 30.7457 25.8298 33.033 25.456 35.3529C25.3946 35.7319 25.5031 36.1162 25.7514 36.409C25.9998 36.7017 26.3631 36.869 26.7461 36.869H57.6931C58.4159 36.869 59.0001 36.2835 59.0001 35.562V8.14776C59.0001 7.79226 58.8564 7.45244 58.5989 7.20542Z" fill="black"/>
<path d="M86.1843 20.3997L84.0931 21.9694C88.1983 27.4314 90.368 33.9389 90.368 40.7902C90.368 41.2071 90.3575 41.6397 90.3366 42.0972H64.228V9.86531C66.3048 10.2143 68.3411 10.7711 70.3003 11.5278L71.2427 9.09026C68.6247 8.07865 65.8774 7.39509 63.0778 7.06049C62.7001 7.01606 62.3342 7.13369 62.0545 7.38071C61.7735 7.62773 61.614 7.98323 61.614 8.35834V43.4042C61.614 44.1256 62.1982 44.7112 62.921 44.7112H91.5612C92.2422 44.7112 92.8094 44.1871 92.8643 43.5087C92.944 42.5154 92.9819 41.6267 92.9819 40.7902C92.9819 33.3677 90.6307 26.3178 86.1843 20.3997Z" fill="black"/>
<path d="M57.693 39.4834H26.3251C25.6023 39.4834 25.0181 40.0689 25.0181 40.7904C25.0181 42.6163 25.1631 44.4448 25.4507 46.2275L28.032 45.8119C27.8346 44.5911 27.7105 43.3469 27.6595 42.0974H56.386V72.0433C53.8543 71.8342 51.3671 71.3218 48.9714 70.5141L48.1362 72.9922C51.1959 74.0234 54.3928 74.6116 57.6407 74.7383C57.6577 74.7383 57.6747 74.7396 57.6917 74.7396C58.0289 74.7396 58.3543 74.6089 58.5974 74.375C58.8562 74.128 59 73.7882 59 73.4326V40.7904C59 40.0689 58.4158 39.4834 57.693 39.4834Z" fill="black"/>
<path d="M91.7482 47.8271C91.5024 47.5095 91.1234 47.3252 90.7222 47.3252H62.921C62.1982 47.3252 61.614 47.9107 61.614 48.6322V73.222C61.614 73.5958 61.7735 73.9513 62.0532 74.1997C62.295 74.414 62.6034 74.529 62.921 74.529C62.972 74.529 63.0243 74.5264 63.0765 74.5199C64.4437 74.3565 65.816 74.1069 67.1544 73.7775L66.5283 71.2393C65.7703 71.4262 65.0004 71.5857 64.2267 71.7151V49.9392H89.0048C88.9146 50.2372 88.8192 50.5339 88.7198 50.8293L91.1966 51.6644C91.4998 50.7652 91.7678 49.8503 91.9886 48.9459C92.0854 48.5564 91.9965 48.1434 91.7482 47.8271Z" fill="black"/>
<path d="M49.5843 12.8282C49.583 12.8269 49.5817 12.8269 49.5804 12.8269C47.7519 11.4545 45.5862 10.7291 43.316 10.7291C42.9226 10.7291 42.5226 10.7592 42.1136 10.8102C40.8392 8.20664 38.6382 6.14027 35.9354 5.04893C37.0123 3.90661 38.3651 3.00609 39.8538 2.4467L38.9349 0C37.0568 0.704472 35.3498 1.84417 33.9958 3.29363C33.6821 3.62953 33.4037 3.97066 33.1449 4.3144C32.6221 4.24382 32.0941 4.19415 31.553 4.19415C25.0664 4.19415 19.79 9.47181 19.79 15.9571C19.79 22.4424 25.0664 27.7201 31.553 27.7201C32.681 27.7201 33.7697 27.5515 34.8035 27.2535C36.2974 29.3447 38.5219 30.8281 41.047 31.3875C41.0483 31.3875 41.0484 31.3888 41.0497 31.3888C41.8077 31.5561 42.571 31.6411 43.316 31.6411C45.8045 31.6411 48.2212 30.7445 50.1176 29.1186C50.1189 29.1173 50.1189 29.1173 50.1202 29.116C52.4401 27.1241 53.772 24.233 53.772 21.1851C53.772 17.8732 52.2454 14.8279 49.5843 12.8282ZM31.553 25.1061C26.5093 25.1061 22.404 21.0021 22.404 15.9571C22.404 10.9121 26.5093 6.80815 31.553 6.80815C31.5883 6.80815 31.621 6.81338 31.6563 6.81338C31.1452 7.94916 30.8603 9.01436 30.7035 9.87698L33.2743 10.3462C33.4299 9.49403 33.7422 8.39615 34.3552 7.25122C37.0123 8.10861 39.1336 10.1501 40.1112 12.7511C40.204 12.9994 40.2864 13.249 40.3569 13.5C40.3661 13.5327 40.3739 13.5653 40.3818 13.598C40.4432 13.8254 40.4968 14.0528 40.5412 14.2829C40.5595 14.3835 40.5726 14.4855 40.5883 14.5861C40.6144 14.756 40.6419 14.9259 40.6589 15.0971C40.685 15.3794 40.702 15.667 40.702 15.9571C40.702 16.6302 40.6197 17.3282 40.4563 18.0313C39.5113 22.0791 35.8831 25.1061 31.553 25.1061ZM40.3635 28.4468C39.1767 27.9632 38.1298 27.1895 37.3051 26.2066C39.2355 25.1192 40.8327 23.509 41.8927 21.5615L40.3635 28.4468ZM51.0495 19.8781H45.93L48.9975 15.7898C50.0823 16.923 50.7933 18.3372 51.0495 19.8781ZM46.9063 14.2188L45.764 15.7415L43.4794 18.7868L43.1082 18.1176V18.1163C43.1735 17.766 43.2271 17.4118 43.2598 17.0511C43.2964 16.6851 43.316 16.3192 43.316 15.9571C43.316 15.5245 43.2885 15.0984 43.2428 14.6776C43.2363 14.6161 43.2232 14.556 43.2154 14.4946C43.1683 14.1169 43.1043 13.7444 43.0219 13.3784C43.0206 13.3693 43.0193 13.3601 43.0167 13.3497C44.4178 13.2882 45.713 13.5993 46.9063 14.2188ZM42.9147 29.0166L44.0244 24.0213L47.352 27.9031C46.0241 28.7017 44.4884 29.0977 42.9147 29.0166ZM49.336 26.2001L46.1587 22.4921H51.0482C50.8168 23.8553 50.2261 25.1349 49.336 26.2001Z" fill="black"/>
<path d="M70.7629 25.1064H68.1489V27.7204H70.7629V25.1064Z" fill="black"/>
<path d="M75.991 27.7202H73.377V30.3342H75.991V27.7202Z" fill="black"/>
<path d="M81.219 36.8691H78.605V39.4831H81.219V36.8691Z" fill="black"/>
<path d="M70.7629 35.562H68.1489V38.176H70.7629V35.562Z" fill="black"/>
<path d="M69.456 30.334H66.842V32.948H69.456V30.334Z" fill="black"/>
<path d="M87.7539 31.6411H85.1399V34.2551H87.7539V31.6411Z" fill="black"/>
<path d="M81.219 26.4131H78.605V29.0271H81.219V26.4131Z" fill="black"/>
<path d="M75.991 32.9482H73.377V35.5622H75.991V32.9482Z" fill="black"/>
<path d="M81.219 31.6411H78.605V34.2551H81.219V31.6411Z" fill="black"/>
<path d="M98.2098 1.58024C94.8038 1.58024 91.5598 2.46639 88.64 3.99035C88.3851 3.41004 88.0388 2.85457 87.5669 2.38274C85.7907 0.607837 82.5167 1.52535 82.1481 1.63514C81.7286 1.76192 81.3992 2.08997 81.2724 2.50952C81.1627 2.87678 80.2438 6.15081 82.0213 7.92833C82.2265 8.13222 82.4487 8.30736 82.6748 8.47073C81.8188 9.36995 81.0424 10.3515 80.3262 11.3827C80.1458 11.1213 79.955 10.8652 79.725 10.6351C78.0023 8.91381 74.7858 9.50326 74.4238 9.57776C73.9402 9.67579 73.5533 10.0378 73.4213 10.5136C73.2449 11.1579 72.4541 14.4555 74.1794 16.1807C75.0459 17.0446 76.1346 17.5295 77.2129 17.6249C76.4339 19.9893 75.9909 22.5027 75.9909 25.1062H78.6049C78.6049 23.228 78.8846 21.3956 79.3681 19.6351C80.0896 20.0429 80.9457 20.2873 81.8724 20.2873C84.3713 20.2873 86.0926 17.3413 86.2809 17.0041C86.5017 16.6081 86.5017 16.1245 86.2809 15.7272C86.1162 15.4331 84.7804 13.1459 82.7781 12.5747C83.5806 11.4729 84.4772 10.4534 85.4574 9.5294C86.124 10.9932 87.7761 12.0362 89.7143 12.0362C92.2133 12.0362 93.9346 9.09025 94.1228 8.75304C94.3437 8.35702 94.3437 7.87344 94.1228 7.47611C94.0104 7.27483 93.3399 6.14297 92.2904 5.26336C94.1764 4.5785 96.167 4.19424 98.2098 4.19424V1.58024ZM78.6022 14.249C78.4977 14.4542 78.4101 14.6685 78.3108 14.8776C78.2363 14.8972 78.1605 14.9142 78.0899 14.9469C77.5959 15.1704 76.7306 15.0332 76.0288 14.3313C75.6772 13.9797 75.6563 12.9485 75.7804 12.0428C76.5842 12.0062 77.4965 12.1029 77.8769 12.4832C78.3696 12.976 78.6467 13.6268 78.5996 14.1823C78.5983 14.2045 78.6036 14.2267 78.6022 14.249ZM83.5741 16.3663C83.0656 17.0316 82.3755 17.6733 81.8724 17.6733C81.2006 17.6733 80.5863 17.4197 80.2295 17.0747C80.5 16.4251 80.8032 15.7925 81.1326 15.1743C81.3679 15.1037 81.6149 15.0593 81.8724 15.0593C82.3769 15.0593 83.0656 15.701 83.5741 16.3663ZM84.6902 6.6161C84.4118 6.50109 84.1308 6.34163 83.8707 6.08024C83.5179 5.72735 83.4969 4.79676 83.6211 3.98381C84.3883 3.8701 85.349 3.86095 85.7188 4.23083C86.0456 4.55758 86.2652 4.9536 86.371 5.3457C85.792 5.74172 85.2326 6.1665 84.6902 6.6161ZM89.7143 9.42223C88.67 9.42223 87.7538 8.81186 87.7512 8.18973C87.7551 8.1662 87.7721 8.05903 87.7747 8.0355C87.7904 7.9048 87.7813 7.77541 87.7578 7.64863C88.0427 7.44866 88.3328 7.25784 88.6256 7.07225C88.9576 6.91148 89.3235 6.80823 89.7143 6.80823C90.2188 6.80823 90.9076 7.44997 91.416 8.11523C90.9076 8.78049 90.2175 9.42223 89.7143 9.42223Z" fill="black"/>
<path d="M49.5739 52.9099C49.7569 52.3779 49.851 51.8172 49.851 51.2461C49.851 48.3628 47.5062 46.0181 44.623 46.0181C43.0298 46.0181 41.5463 46.7591 40.5713 47.9629C39.476 47.3656 38.1664 47.1748 36.9392 47.4545C35.7838 46.5226 34.3618 46.0181 32.86 46.0181C29.2566 46.0181 26.325 48.9497 26.325 52.5531C23.4418 52.5531 21.097 54.8978 21.097 57.781C21.097 58.6659 21.3166 59.5141 21.7296 60.2683C20.5285 61.2433 19.79 62.7241 19.79 64.316C19.79 67.1993 22.1348 69.544 25.018 69.544C26.9079 69.544 28.5691 68.535 29.4867 67.0267L31.6027 71.2588L32.8783 78.9074C32.9829 79.5373 33.5279 80 34.167 80H44.623C45.3458 80 45.93 79.4145 45.93 78.693V70.9595L47.2187 63.2247C47.2304 63.1528 47.237 63.0809 47.237 63.009C50.8404 63.009 53.772 60.6643 53.772 57.781C53.772 55.5644 52.0402 53.6614 49.5739 52.9099ZM47.237 60.395C46.9285 60.395 46.607 60.3571 46.1953 60.2722C45.8111 60.1925 45.4098 60.2905 45.1053 60.5388C44.8007 60.7871 44.623 61.1583 44.623 61.5517V62.9019L43.3343 70.6367C43.3225 70.7072 43.316 70.7791 43.316 70.851V77.386H35.274L34.15 70.6354C34.1278 70.5073 34.0886 70.3831 34.0298 70.2655L30.1088 62.4235C29.8866 61.9817 29.4344 61.702 28.939 61.702H28.6776C28.2502 61.702 27.849 61.9112 27.6059 62.2614C27.3602 62.613 27.304 63.0613 27.4517 63.4613C27.5745 63.7958 27.632 64.0677 27.632 64.316C27.632 65.7577 26.4596 66.93 25.018 66.93C23.5764 66.93 22.404 65.7577 22.404 64.316C22.404 63.2338 23.0928 62.2523 24.1188 61.8746C24.5449 61.7164 24.8586 61.3505 24.9488 60.9035C25.0376 60.4578 24.8886 59.9977 24.5554 59.6893C24.0103 59.1848 23.711 58.5064 23.711 57.781C23.711 56.3394 24.8834 55.167 26.325 55.167C26.5864 55.167 26.8622 55.2219 27.189 55.3396C27.5889 55.4833 28.0333 55.4232 28.3835 55.1788C28.7325 54.9344 28.939 54.5358 28.939 54.1097V52.5531C28.939 50.3913 30.6982 48.6321 32.86 48.6321C33.9252 48.6321 34.9251 49.0581 35.6727 49.8319C36.0426 50.2161 36.6111 50.3364 37.1051 50.1338C38.1207 49.7182 39.2604 49.9887 39.9975 50.7834C40.3073 51.1167 40.7687 51.2657 41.213 51.1755C41.6587 51.0866 42.026 50.7716 42.1828 50.3455C42.5605 49.3209 43.5408 48.6321 44.623 48.6321C46.0646 48.6321 47.237 49.8044 47.237 51.2461C47.237 51.8878 46.9913 52.5099 46.5443 52.9987C46.2005 53.3752 46.1077 53.9149 46.3025 54.3842C46.4985 54.8534 46.9494 55.167 47.4579 55.1867C49.4968 55.2664 51.158 56.4309 51.158 57.781C51.158 59.1978 49.3622 60.395 47.237 60.395Z" fill="black"/>
<path d="M89.3891 52.5532H88.0193C83.4684 52.5532 79.6951 55.9684 79.2415 60.4972L78.6769 66.1473L76.0302 67.7353L75.6081 67.3131C75.3637 67.0674 75.0317 66.9302 74.684 66.9302H74.0305C71.508 66.9302 69.4561 68.9822 69.4561 71.5047C69.4561 73.8194 71.1839 75.7381 73.4176 76.0387C73.7182 78.2723 75.6368 80.0002 77.9515 80.0002C80.474 80.0002 82.526 77.9482 82.526 75.4257V74.7722C82.526 74.4258 82.3888 74.0925 82.1431 73.8481L81.7209 73.426L83.305 70.7858L90.1876 70.1598C94.7608 69.7442 98.21 65.9669 98.21 61.3755C98.21 56.5108 94.2537 52.5532 89.3891 52.5532ZM79.1514 74.5526L79.912 75.3133V75.4257C79.912 76.5066 79.0324 77.3862 77.9515 77.3862C76.8706 77.3862 75.991 76.5066 75.991 75.4257V74.7722C75.991 74.0507 75.4068 73.4652 74.684 73.4652H74.0305C72.9497 73.4652 72.07 72.5856 72.07 71.5047C72.07 70.4238 72.9497 69.5442 74.0305 69.5442H74.1429L74.9036 70.3049C75.3271 70.7296 75.9845 70.8094 76.5008 70.5009L79.7094 68.5757L80.295 69.1612L80.8805 69.7468L78.9553 72.9555C78.6469 73.4704 78.7279 74.1278 79.1514 74.5526ZM89.9511 67.5563L83.0175 68.1862L81.2739 66.4427L81.8438 60.7559C82.1627 57.5695 84.8172 55.1672 88.0193 55.1672H89.3891C92.8108 55.1672 95.596 57.9524 95.596 61.3755C95.596 64.6064 93.1702 67.2635 89.9511 67.5563Z" fill="black"/>
<path d="M34.9069 12.1482C33.9829 13.2552 32.4615 13.646 31.2081 13.097C30.1482 12.6318 29.428 11.5391 29.3731 10.3145L26.7617 10.4308C26.8597 12.6422 28.1929 14.6275 30.1573 15.4902C30.8722 15.8038 31.6316 15.9541 32.3883 15.9541C34.0796 15.9541 35.7617 15.2013 36.9132 13.8237L34.9069 12.1482Z" fill="black"/>
<path d="M85.6706 58.6492C84.3597 59.6164 83.8618 61.1587 83.833 62.2814L86.447 62.3493C86.4496 62.2422 86.4941 61.2907 87.2234 60.7535C87.8939 60.2594 88.8663 60.2777 89.6478 60.7927L91.0882 58.6113C89.3956 57.4925 87.2168 57.5082 85.6706 58.6492Z" fill="black"/>
<path d="M37.5429 60.2997C35.9811 58.7574 33.669 57.7811 31.553 57.7811V60.3951C33.835 60.3951 36.781 62.2968 36.781 64.3161V69.5441H39.395V64.3161C39.395 62.7438 39.7766 59.0881 43.316 59.0881V56.4741C40.5752 56.4741 38.565 57.8883 37.5429 60.2997Z" fill="black"/>
</g>
<defs>
<filter id="filter0_d" x="19" y="0" width="86" height="87" filterUnits="userSpaceOnUse" color-interpolation-filters="sRGB">
<feFlood flood-opacity="0" result="BackgroundImageFix"/>
<feColorMatrix in="SourceAlpha" type="matrix" values="0 0 0 0 0 0 0 0 0 0 0 0 0 0 0 0 0 0 127 0"/>
<feOffset dx="3" dy="4"/>
<feGaussianBlur stdDeviation="1.5"/>
<feColorMatrix type="matrix" values="0 0 0 0 0.584314 0 0 0 0 0.760784 0 0 0 0 0.113725 0 0 0 0.5 0"/>
<feBlend mode="normal" in2="BackgroundImageFix" result="effect1_dropShadow"/>
<feBlend mode="normal" in="SourceGraphic" in2="effect1_dropShadow" result="shape"/>
</filter>
<clipPath id="clip0">
<rect width="80" height="80" fill="white" transform="translate(19)"/>
</clipPath>
</defs>
</svg>
