<svg width="60" height="33" viewBox="0 0 60 33" fill="none" xmlns="http://www.w3.org/2000/svg">
<path d="M59.4757 17.4661C59.0327 18.1676 58.3016 18.6367 57.4793 18.7472L47.068 20.1457L34.9515 21.4272L19.2816 23.1748L16.8932 23.4661L20.0442 29.1806C20.2317 29.5207 20.3301 29.9028 20.3301 30.2912V30.4561C20.3301 30.9069 20.1665 31.3424 19.8696 31.6817L19.8591 31.6937C19.634 31.9509 19.3406 32.139 19.0129 32.2361C18.3453 32.4339 17.6229 32.2788 17.0953 31.8244L0.773598 17.7651C0.458351 17.4935 0.225483 17.1391 0.101376 16.7419C0.0341797 16.5269 0 16.3029 0 16.0777V15.9979C0 15.7745 0.0384102 15.5527 0.113552 15.3423C0.229927 15.0165 0.430935 14.7275 0.695938 14.505L17.1271 0.711624C17.5028 0.39624 17.9776 0.223358 18.4681 0.223358H18.5749C18.9939 0.223358 19.3996 0.370239 19.7214 0.638441C20.0747 0.932898 20.3013 1.35202 20.354 1.80894L20.3686 1.93554C20.4193 2.37516 20.3305 2.8196 20.1147 3.20595L16.8349 9.07773L32.3883 10.7671L47.068 12.4564L57.4761 13.6474C58.2984 13.7415 59.0338 14.2032 59.4757 14.903L59.515 15.0034C59.8258 15.7976 59.8117 16.6822 59.4757 17.4661Z" fill="#191919"/>
</svg>
