<svg width="55" height="55" viewBox="0 0 55 55" fill="none" xmlns="http://www.w3.org/2000/svg">
<g clip-path="url(#clip0)">
<path d="M54.4999 23.1153L29.2907 5.92722C28.7672 5.57153 28.0546 5.70753 27.699 6.23102C27.5702 6.42062 27.5012 6.6445 27.5009 6.87375V17.2095C9.87745 17.9382 0.229138 35.3784 0 48.0679V48.1251C0 48.758 0.513064 49.271 1.14591 49.271C1.77166 49.2711 2.28172 48.7691 2.29181 48.1435V48.077C2.42008 44.9991 14.4655 31.7231 27.5009 30.9714V41.2499C27.5017 41.8827 28.0153 42.3951 28.6481 42.3945C28.8774 42.3943 29.1012 42.3252 29.2908 42.1964L54.5 25.0083C55.0228 24.6516 55.1574 23.9387 54.8006 23.416C54.7199 23.2979 54.618 23.1959 54.4999 23.1153Z" fill="white"/>
</g>
<defs>
<clipPath id="clip0">
<rect width="55" height="55" fill="white"/>
</clipPath>
</defs>
</svg>
