<svg width="100" height="100" viewBox="0 0 100 100" fill="none" xmlns="http://www.w3.org/2000/svg">
<g opacity="0.1">
<path opacity="0.1" d="M49.6459 33.3061C46.3083 25.5047 43.4943 15.0711 49.875 7.20624C55.6667 0.0707827 67.3155 -1.92714 77.1974 2.037C72.5837 4.63748 70.0969 13.8977 65.4177 19.4792C56.4847 30.008 51.2493 30.008 49.6459 33.3061Z" fill="black"/>
<path opacity="0.1" d="M60.9993 7.8087C58.0543 10.1872 53.2116 13.9928 51.3137 20.3037C49.6776 25.7901 49.5467 30.4202 49.6122 33.1792C49.6449 33.2109 49.6449 33.2744 49.6776 33.3061C51.2483 30.0396 56.5164 30.0396 65.4167 19.4474C70.0959 13.8659 72.5827 4.63739 77.1964 2.0052C77.1637 1.97349 77.0983 1.97349 77.0656 1.94177C70.9466 1.2758 63.7806 5.58878 60.9993 7.8087Z" fill="black"/>
<path opacity="0.1" d="M51.3136 20.3037C53.2115 14.0245 58.0542 10.1872 60.9992 7.80872C63.7805 5.5888 70.9465 1.2441 77.0327 1.94179C67.2163 -1.92722 55.6328 0.0707143 49.8739 7.17446C43.5586 14.9759 46.2745 25.3778 49.6121 33.1475C49.5139 30.4202 49.6448 25.7901 51.3136 20.3037Z" fill="black"/>
<path opacity="0.1" d="M49.8081 36.7629C49.35 33.2744 49.1537 29.7225 49.6118 26.2024C50.0372 22.6822 51.117 19.1938 52.884 16.0542C54.7164 12.9463 57.2032 10.2189 60.1154 8.09415C63.0276 5.93766 66.2998 4.32028 69.7028 3.05176C63.2567 6.19136 57.105 10.3458 53.6693 16.4981C50.0699 22.5554 49.5464 29.786 49.8081 36.7629Z" fill="black"/>
<path opacity="0.1" d="M49.8089 16.7202C49.7435 17.7033 49.9725 18.6864 50.1361 19.6378C50.3652 20.5892 50.5942 21.5723 50.9542 22.3969L50.5615 22.2383C51.8049 21.7626 53.0811 21.6675 54.3245 21.5089C55.6006 21.4138 56.8768 21.3503 58.1202 21.5723C56.8768 21.6357 55.6333 21.8577 54.3899 22.048C53.1792 22.2383 51.9031 22.4603 50.7906 22.8091L50.4961 22.9043L50.3979 22.6506C50.0052 21.6675 49.8089 20.6844 49.678 19.7012C49.5799 18.7181 49.5799 17.7033 49.8089 16.7202Z" fill="black"/>
<path opacity="0.1" d="M53.245 10.1238C53.3758 11.7094 53.7358 13.2951 54.5865 14.5319L54.2593 14.4051C55.6664 14.1196 57.0734 14.1514 58.4477 14.2148C59.822 14.3099 61.229 14.5319 62.5706 14.8808C59.822 14.7539 57.0407 14.6271 54.3902 15.0076L54.1612 15.0393L54.063 14.8808C53.1141 13.4537 52.9505 11.7094 53.245 10.1238Z" fill="black"/>
<path opacity="0.1" d="M57.8915 4.95447C57.7606 6.60355 58.0224 8.22093 58.8077 9.58459L58.4805 9.42603C59.8875 9.14061 61.2946 9.20404 62.7016 9.26746C64.0759 9.39432 65.4829 9.61631 66.7918 10.1237C65.4175 9.87001 64.0432 9.8383 62.6689 9.80659C61.2946 9.77487 59.9203 9.8383 58.6114 9.99687L58.3823 10.0286L58.2842 9.8383C57.4007 8.34778 57.3353 6.50842 57.8915 4.95447Z" fill="black"/>
<path opacity="0.1" d="M64.6315 2.57605C64.4679 3.6543 64.2061 4.76426 64.5006 5.74737L64.2389 5.62052C65.0896 5.36681 65.9731 5.36681 66.8239 5.39852C67.6746 5.43024 68.5581 5.5888 69.3434 5.87422C68.4927 5.77908 67.6419 5.71566 66.8239 5.71566C65.9731 5.71566 65.1551 5.87422 64.337 6.00108L64.108 6.03279L64.0752 5.87422C63.8789 4.66912 64.1734 3.59087 64.6315 2.57605Z" fill="black"/>
<path opacity="0.1" d="M72.6804 24.2361C61.915 24.2361 52.8511 31.213 50.037 40.7904C47.223 31.2447 38.1264 24.2361 27.3937 24.2361C14.3706 24.2361 3.83423 34.4794 3.83423 47.0696C3.83423 67.5245 22.2892 82.9054 35.8686 91.4363C35.3124 89.7872 34.2325 87.5038 33.709 86.1085C31.2876 79.5438 30.4368 75.6114 30.6986 70.9496L30.8949 47.3233C30.8949 46.8158 31.3203 46.4036 31.8766 46.4036C32.4001 46.4036 32.8582 46.8159 32.8582 47.355L33.3818 71.3301C33.8726 71.4887 34.5925 71.5838 35.4105 71.2667L35.8686 47.355C35.8686 46.8476 36.294 46.4353 36.8503 46.4353C37.3738 46.4353 37.8319 46.8476 37.8319 47.3867L38.1919 71.2984C38.6827 71.457 39.468 71.5838 40.5478 71.235L40.8423 47.3867C40.8423 46.8793 41.2677 46.4353 41.8239 46.4353C42.3475 46.4353 42.7729 46.8476 42.8056 47.355L43.231 71.2033C43.7218 71.3301 44.4417 71.3936 45.2924 71.2667L45.816 47.3867C45.816 46.8793 46.2413 46.4353 46.7976 46.4353C47.3212 46.4353 47.7465 46.8476 47.7793 47.355L48.0083 71.679C48.2046 77.9582 48.2374 81.1929 45.9141 85.6962C44.8016 87.8527 42.8383 92.0388 42.8383 93.1488C42.8383 93.3708 42.8383 94.2587 42.8383 95.5273C47.223 97.9058 50.1679 99.1743 50.1679 99.1743C50.1679 99.1743 53.211 97.9692 57.7593 95.5907C55.2725 91.8168 51.3132 88.6455 52.0331 79.9244C53.5383 61.9113 55.5997 47.0378 62.0131 46.023C62.504 45.9279 62.9621 46.3084 62.9621 46.7841V92.7048C76.6397 84.6179 96.3708 69.1419 96.3708 47.1964C96.2399 34.4477 85.6708 24.2361 72.6804 24.2361Z" fill="black"/>
<path opacity="0.1" d="M63.6496 94.5758C78.2107 85.9816 99.2179 69.4907 99.2179 46.1182C99.2179 32.7035 87.9944 21.7942 74.1205 21.7942C62.6679 21.7942 53.0151 29.2468 50.0047 39.395C46.9943 29.2151 37.3415 21.7942 25.8889 21.7942C12.0477 21.7942 0.791504 32.6718 0.791504 46.1182C0.791504 67.8734 20.4244 84.2374 34.8873 93.339" stroke="black" stroke-width="0.1957" stroke-miterlimit="10"/>
<path opacity="0.1" d="M50.0053 40.7586C47.1913 31.213 38.0947 24.2043 27.362 24.2043C14.3388 24.2043 3.80249 34.4477 3.80249 47.0378C3.80249 67.4928 22.2574 82.8737 35.8369 91.4045C35.2806 89.7555 34.2008 87.4721 33.6773 86.0767C31.2559 79.5121 30.4051 75.5797 30.6669 70.9178L30.8632 47.2915C30.8632 46.7841 31.2886 46.3718 31.8449 46.3718C32.3684 46.3718 32.8265 46.7841 32.8265 47.3232L33.35 71.2984C33.8409 71.457 34.5607 71.5521 35.3788 71.235L35.8369 47.3232C35.8369 46.8158 36.2623 46.4036 36.8185 46.4036C37.3421 46.4036 37.8002 46.8158 37.8002 47.355L38.1601 71.2667C38.6509 71.4253 39.4363 71.5521 40.5161 71.2033L40.8106 47.355C40.8106 46.8475 41.2359 46.4036 41.7922 46.4036C42.3158 46.4036 42.7411 46.8158 42.7739 47.3232L43.1992 71.1715C43.6901 71.2984 44.4099 71.3618 45.2607 71.235L45.7842 47.355C45.7842 46.8475 46.2096 46.4036 46.7659 46.4036C47.2894 46.4036 47.7148 46.8158 47.7475 47.3232L47.9766 71.6472C48.1729 77.9264 48.2056 81.1612 45.8824 85.6645C44.7699 87.821 42.8066 92.0071 42.8066 93.1171C42.8066 93.339 42.8066 94.227 42.8066 95.4955C47.1913 97.874 50.1362 99.1426 50.1362 99.1426L50.0053 40.7586Z" fill="black"/>
</g>
<path d="M49.0246 33.3061C45.687 25.5047 42.8729 15.0711 49.2536 7.20624C55.0453 0.0707827 66.6942 -1.92714 76.5761 2.037C71.9624 4.63748 69.4755 13.8977 64.7964 19.4792C55.8307 30.008 50.5952 30.008 49.0246 33.3061Z" fill="#5B8F31"/>
<path d="M60.3447 7.8087C57.3998 10.1872 52.557 13.9928 50.6592 20.3037C49.0231 25.7901 48.8922 30.4202 48.9576 33.1792C48.9904 33.2109 48.9904 33.2744 49.0231 33.3061C50.5937 30.0396 55.8619 30.0396 64.7621 19.4474C69.4413 13.8659 71.9282 4.63739 76.5419 2.0052C76.5092 1.97349 76.4437 1.97349 76.411 1.94177C70.2921 1.2758 63.1261 5.58878 60.3447 7.8087Z" fill="#437A14"/>
<path d="M50.6591 20.3037C52.5569 14.0245 57.3997 10.1872 60.3446 7.80872C63.126 5.5888 70.292 1.2441 76.3782 1.94179C66.5617 -1.92722 54.9783 0.0707143 49.2193 7.17446C42.9041 14.9759 45.6199 25.3778 48.9575 33.1475C48.8921 30.4202 49.023 25.7901 50.6591 20.3037Z" fill="#9CD316"/>
<path d="M49.1543 36.7629C48.6962 33.2744 48.4999 29.7225 48.958 26.2024C49.3834 22.6822 50.4632 19.1938 52.2302 16.0542C54.0626 12.9463 56.5494 10.2189 59.4616 8.09415C62.3738 5.93766 65.646 4.32028 69.049 3.05176C62.6029 6.19136 56.4512 10.3458 53.0155 16.4981C49.4488 22.5554 48.8926 29.786 49.1543 36.7629Z" fill="#2C602C"/>
<path d="M49.1869 16.7202C49.1214 17.7033 49.3505 18.6864 49.5141 19.6378C49.7432 20.5892 49.9722 21.5723 50.3321 22.3969L49.9395 22.2383C51.1829 21.7626 52.459 21.6675 53.7025 21.5089C54.9786 21.4138 56.2547 21.3503 57.4982 21.5723C56.2547 21.6357 55.0113 21.8577 53.7679 22.048C52.5572 22.2383 51.2811 22.4603 50.1685 22.8091L49.874 22.9043L49.7759 22.6506C49.3832 21.6675 49.1869 20.6844 49.056 19.7012C48.9578 18.7181 48.9251 17.7033 49.1869 16.7202Z" fill="#2C602C"/>
<path d="M52.5898 10.1238C52.7207 11.7094 53.0806 13.2951 53.9314 14.5319L53.6042 14.4051C55.0112 14.1196 56.4182 14.1514 57.7925 14.2148C59.1668 14.3099 60.5739 14.5319 61.9154 14.8808C59.1668 14.7539 56.3855 14.6271 53.7351 15.0076L53.506 15.0393L53.4078 14.8808C52.4916 13.4537 52.2953 11.7094 52.5898 10.1238Z" fill="#2C602C"/>
<path d="M57.2359 4.95447C57.105 6.60355 57.3667 8.22093 58.1521 9.58459L57.8248 9.42603C59.2319 9.14061 60.6389 9.20404 62.0459 9.26746C63.4202 9.39432 64.8273 9.61631 66.1361 10.1237C64.7618 9.87001 63.3875 9.8383 62.0132 9.80659C60.6389 9.77487 59.2646 9.8383 57.9557 9.99687L57.7267 10.0286L57.6285 9.8383C56.7777 8.34778 56.6796 6.50842 57.2359 4.95447Z" fill="#2C602C"/>
<path d="M63.977 2.57605C63.8134 3.6543 63.5516 4.76426 63.8461 5.74737L63.5843 5.62052C64.4351 5.36681 65.3186 5.36681 66.1693 5.39852C67.0201 5.43024 67.9036 5.5888 68.6889 5.87422C67.8381 5.77908 66.9874 5.71566 66.1693 5.71566C65.3186 5.71566 64.5005 5.87422 63.6825 6.00108L63.4534 6.03279L63.4207 5.87422C63.2244 4.66912 63.5189 3.59087 63.977 2.57605Z" fill="#2C602C"/>
<path d="M72.0268 24.2361C61.2614 24.2361 52.1975 31.213 49.3835 40.7904C46.5694 31.2447 37.4728 24.2361 26.7402 24.2361C13.717 24.2361 3.18066 34.4794 3.18066 47.0696C3.18066 67.5245 21.6356 82.9054 35.2151 91.4363C34.6588 89.7872 33.579 87.5038 33.0554 86.1085C30.634 79.5438 29.7833 75.6114 30.0451 70.9496L30.2414 47.3233C30.2414 46.8158 30.6668 46.4036 31.223 46.4036C31.7466 46.4036 32.2047 46.8159 32.2047 47.355L32.7282 71.3301C33.219 71.4887 33.9389 71.5838 34.7569 71.2667L35.2151 47.355C35.2151 46.8476 35.6404 46.4353 36.1967 46.4353C36.7202 46.4353 37.1783 46.8476 37.1783 47.3867L37.5383 71.2984C38.0291 71.457 38.8144 71.5838 39.8942 71.235L40.1887 47.3867C40.1887 46.8793 40.6141 46.4353 41.1704 46.4353C41.6939 46.4353 42.1193 46.8476 42.152 47.355L42.5774 71.2033C43.0682 71.3301 43.7881 71.3936 44.6389 71.2667L45.1624 47.3867C45.1624 46.8793 45.5878 46.4353 46.144 46.4353C46.6676 46.4353 47.093 46.8476 47.1257 47.355L47.3547 71.679C47.5511 77.9582 47.5838 81.1929 45.2606 85.6962C44.148 87.8527 42.1847 92.0388 42.1847 93.1488C42.1847 93.3708 42.1847 94.2587 42.1847 95.5273C46.5694 97.9058 49.5144 99.1743 49.5144 99.1743C49.5144 99.1743 52.5575 97.9692 57.1058 95.5907C54.6189 91.8168 50.6596 88.6455 51.3795 79.9244C52.8847 61.9113 54.9461 47.0378 61.3596 46.023C61.8504 45.9279 62.3085 46.3084 62.3085 46.7841V92.7048C75.9861 84.6179 95.7172 69.1419 95.7172 47.1964C95.5863 34.4477 85.05 24.2361 72.0268 24.2361Z" fill="#437A14"/>
<path d="M63.0282 94.5758C77.5893 85.9816 98.5965 69.4907 98.5965 46.1182C98.5965 32.7035 87.3731 21.7942 73.4991 21.7942C62.0466 21.7942 52.3937 29.2468 49.3834 39.395C46.373 29.2151 36.7201 21.7942 25.2676 21.7942C11.4264 21.7942 0.170166 32.6718 0.170166 46.1182C0.170166 67.8734 19.8031 84.2374 34.266 93.339" stroke="#9CD316" stroke-width="0.1957" stroke-miterlimit="10"/>
<path d="M49.3835 40.7586C46.5694 31.213 37.4728 24.2043 26.7402 24.2043C13.717 24.2043 3.18066 34.4477 3.18066 47.0378C3.18066 67.4928 21.6356 82.8737 35.2151 91.4045C34.6588 89.7555 33.579 87.4721 33.0554 86.0767C30.634 79.5121 29.7833 75.5797 30.045 70.9178L30.2414 47.2915C30.2414 46.7841 30.6668 46.3718 31.223 46.3718C31.7466 46.3718 32.2047 46.7841 32.2047 47.3232L32.7282 71.2984C33.219 71.457 33.9389 71.5521 34.7569 71.235L35.2151 47.3232C35.2151 46.8158 35.6404 46.4036 36.1967 46.4036C36.7202 46.4036 37.1783 46.8158 37.1783 47.355L37.5383 71.2667C38.0291 71.4253 38.8144 71.5521 39.8942 71.2033L40.1887 47.355C40.1887 46.8475 40.6141 46.4036 41.1704 46.4036C41.6939 46.4036 42.1193 46.8158 42.152 47.3232L42.5774 71.1715C43.0682 71.2984 43.7881 71.3618 44.6389 71.235L45.1624 47.355C45.1624 46.8475 45.5878 46.4036 46.144 46.4036C46.6676 46.4036 47.093 46.8158 47.1257 47.3232L47.3547 71.6472C47.5511 77.9264 47.5838 81.1612 45.2606 85.6645C44.148 87.821 42.1847 92.0071 42.1847 93.1171C42.1847 93.339 42.1847 94.227 42.1847 95.4955C46.5694 97.874 49.5144 99.1426 49.5144 99.1426L49.3835 40.7586Z" fill="#9CD316"/>
</svg>
