<svg width="35" height="39" viewBox="0 0 35 39" fill="none" xmlns="http://www.w3.org/2000/svg">
<g clip-path="url(#clip0)">
<path d="M25.3409 0.67334H9.65847C4.33279 0.67334 0 5.40819 0 11.2278V28.3646C0 34.1845 4.33279 38.9191 9.65847 38.9191H25.3409C30.667 38.9191 34.9998 34.1842 34.9998 28.3646V11.2278C35 5.40819 30.667 0.67334 25.3409 0.67334ZM31.8946 28.3646C31.8946 32.3134 28.9547 35.5257 25.3411 35.5257H9.65847C6.04508 35.526 3.10535 32.3134 3.10535 28.3646V11.2278C3.10535 7.27928 6.04508 4.06669 9.65847 4.06669H25.3409C28.9545 4.06669 31.8944 7.27928 31.8944 11.2278V28.3646H31.8946Z" fill="white" fill-opacity="0.9"/>
<path d="M17.5 9.94189C12.5271 9.94189 8.48145 14.3627 8.48145 19.7969C8.48145 25.2307 12.5271 29.6514 17.5 29.6514C22.4729 29.6514 26.5186 25.2307 26.5186 19.7969C26.5186 14.3627 22.4729 9.94189 17.5 9.94189ZM17.5 26.2578C14.2396 26.2578 11.5868 23.3594 11.5868 19.7966C11.5868 16.2336 14.2394 13.335 17.5 13.335C20.7606 13.335 23.4132 16.2336 23.4132 19.7966C23.4132 23.3594 20.7604 26.2578 17.5 26.2578Z" fill="white" fill-opacity="0.9"/>
<path d="M26.8969 7.06445C26.2986 7.06445 25.7108 7.32913 25.2883 7.79289C24.8637 8.25439 24.6196 8.89686 24.6196 9.55291C24.6196 10.2069 24.8639 10.8492 25.2883 11.3129C25.7106 11.7744 26.2986 12.0414 26.8969 12.0414C27.4972 12.0414 28.0831 11.7744 28.5075 11.3129C28.9319 10.8492 29.1741 10.2067 29.1741 9.55291C29.1741 8.89686 28.9319 8.25439 28.5075 7.79289C28.0852 7.32913 27.4972 7.06445 26.8969 7.06445Z" fill="white" fill-opacity="0.9"/>
</g>
<defs>
<clipPath id="clip0">
<rect width="35" height="38.246" fill="white" transform="translate(0 0.67334)"/>
</clipPath>
</defs>
</svg>
