<svg width="209" height="103" viewBox="0 0 209 103" fill="none" xmlns="http://www.w3.org/2000/svg">
<g opacity="0.1">
<path opacity="0.1" d="M52.9435 34.9326C49.4394 26.9826 46.485 16.3503 53.184 8.33561C59.2647 1.06426 71.4947 -0.971718 81.8696 3.06792C77.0257 5.71793 74.4148 15.1545 69.5022 20.8423C60.1235 31.5716 54.6269 31.5716 52.9435 34.9326Z" fill="black"/>
<path opacity="0.1" d="M64.8642 8.95044C61.7723 11.3742 56.6879 15.2523 54.6954 21.6834C52.9777 27.2742 52.8403 31.9925 52.909 34.8041C52.9433 34.8364 52.9433 34.9011 52.9777 34.9334C54.6267 31.6047 60.1577 31.6047 69.502 20.8108C74.4147 15.123 77.0256 5.71873 81.8695 3.03641C81.8352 3.00409 81.7665 3.00409 81.7321 2.97178C75.3079 2.29312 67.7843 6.68824 64.8642 8.95044Z" fill="black"/>
<path opacity="0.1" d="M54.6955 21.6835C56.6881 15.2847 61.7725 11.3744 64.8643 8.95059C67.7844 6.6884 75.308 2.26096 81.6979 2.97193C71.3916 -0.970754 59.2303 1.06523 53.1839 8.30425C46.5536 16.2543 49.405 26.8543 52.9091 34.7719C52.806 31.9927 52.9435 27.2744 54.6955 21.6835Z" fill="black"/>
<path opacity="0.1" d="M53.1154 38.4556C52.6344 34.9007 52.4283 31.2812 52.9092 27.694C53.3558 24.1068 54.4895 20.552 56.3447 17.3526C58.2685 14.1855 60.8794 11.4062 63.9369 9.24096C66.9944 7.0434 70.4299 5.39522 74.0027 4.10254C67.2349 7.30193 60.7763 11.5355 57.1692 17.805C53.3902 23.9776 52.8405 31.3459 53.1154 38.4556Z" fill="black"/>
<path opacity="0.1" d="M53.1152 18.0322C53.0465 19.0341 53.287 20.0359 53.4587 21.0054C53.6992 21.9749 53.9397 22.9767 54.3176 23.817L53.9053 23.6554C55.2108 23.1706 56.5506 23.0737 57.8561 22.9121C59.1959 22.8151 60.5357 22.7505 61.8411 22.9767C60.5357 23.0414 59.2302 23.2676 57.9248 23.4615C56.6537 23.6554 55.3139 23.8816 54.1458 24.2371L53.8366 24.334L53.7336 24.0755C53.3213 23.0737 53.1152 22.0719 52.9778 21.07C52.8747 20.0682 52.8747 19.0341 53.1152 18.0322Z" fill="black"/>
<path opacity="0.1" d="M56.7223 11.3096C56.8597 12.9254 57.2376 14.5413 58.1308 15.8017L57.7873 15.6724C59.2645 15.3815 60.7417 15.4139 62.1846 15.4785C63.6274 15.5755 65.1047 15.8017 66.5132 16.1572C63.6274 16.0279 60.7073 15.8986 57.9247 16.2864L57.6842 16.3187L57.5811 16.1572C56.5849 14.7029 56.4131 12.9254 56.7223 11.3096Z" fill="black"/>
<path opacity="0.1" d="M61.6008 6.04199C61.4633 7.72249 61.7382 9.37066 62.5627 10.7603L62.2191 10.5987C63.6964 10.3079 65.1736 10.3725 66.6508 10.4371C68.0937 10.5664 69.5709 10.7926 70.9451 11.3097C69.5022 11.0512 68.0593 11.0188 66.6165 10.9865C65.1736 10.9542 63.7307 11.0188 62.3565 11.1804L62.1161 11.2127L62.013 11.0188C61.0854 9.49993 61.0167 7.62553 61.6008 6.04199Z" fill="black"/>
<path opacity="0.1" d="M68.6775 3.61816C68.5057 4.71694 68.2309 5.84802 68.5401 6.84984L68.2652 6.72057C69.1584 6.46204 70.086 6.46204 70.9792 6.49436C71.8724 6.52667 72.8 6.68826 73.6245 6.97911C72.7313 6.88216 71.8381 6.81753 70.9792 6.81753C70.086 6.81753 69.2272 6.97911 68.3683 7.10838L68.1278 7.14069L68.0935 6.97911C67.8873 5.75107 68.1965 4.6523 68.6775 3.61816Z" fill="black"/>
<path opacity="0.1" d="M77.1287 25.6904C65.8262 25.6904 56.3101 32.8002 53.3557 42.56C50.4012 32.8325 40.8508 25.6904 29.5826 25.6904C15.9097 25.6904 4.84766 36.1288 4.84766 48.9587C4.84766 69.8033 24.2234 85.4771 38.4803 94.1704C37.8963 92.4899 36.7626 90.163 36.213 88.7411C33.6708 82.0514 32.7776 78.0441 33.0524 73.2935L33.2585 49.2173C33.2585 48.7002 33.7051 48.2801 34.2891 48.2801C34.8388 48.2801 35.3198 48.7002 35.3198 49.2496L35.8694 73.6813C36.3847 73.8429 37.1405 73.9399 37.9994 73.6167L38.4803 49.2496C38.4803 48.7325 38.9269 48.3124 39.511 48.3124C40.0606 48.3124 40.5416 48.7325 40.5416 49.2819L40.9195 73.649C41.4348 73.8106 42.2593 73.9399 43.393 73.5844L43.7022 49.2819C43.7022 48.7648 44.1488 48.3124 44.7328 48.3124C45.2825 48.3124 45.7291 48.7325 45.7634 49.2496L46.21 73.552C46.7253 73.6813 47.4811 73.746 48.3743 73.6167L48.924 49.2819C48.924 48.7648 49.3706 48.3124 49.9546 48.3124C50.5043 48.3124 50.9509 48.7325 50.9852 49.2496L51.2257 74.0368C51.4318 80.4356 51.4662 83.7319 49.0271 88.321C47.859 90.5185 45.7978 94.7844 45.7978 95.9155C45.7978 96.1417 45.7978 97.0466 45.7978 98.3393C50.4012 100.763 53.4931 102.056 53.4931 102.056C53.4931 102.056 56.688 100.828 61.4632 98.4039C58.8523 94.5582 54.6955 91.3265 55.4513 82.4393C57.0316 64.0831 59.1959 48.9264 65.9293 47.8923C66.4446 47.7953 66.9255 48.1831 66.9255 48.6679V95.463C81.2856 87.2222 102.001 71.4514 102.001 49.088C101.864 36.0965 90.7673 25.6904 77.1287 25.6904Z" fill="black"/>
<path opacity="0.1" d="M67.6476 97.3699C82.9351 88.612 104.99 71.8071 104.99 47.9894C104.99 34.3192 93.207 23.2021 78.6409 23.2021C66.6169 23.2021 56.4825 30.7967 53.3219 41.1381C50.1613 30.7643 40.0269 23.2021 28.0029 23.2021C13.4711 23.2021 1.65332 34.2869 1.65332 47.9894C1.65332 70.1589 22.2658 86.8345 37.4503 96.1095" stroke="black" stroke-width="0.1957" stroke-miterlimit="10"/>
<path opacity="0.1" d="M53.3214 42.5277C50.367 32.8003 40.8166 25.6582 29.5484 25.6582C15.8755 25.6582 4.81348 36.0966 4.81348 48.9265C4.81348 69.7711 24.1892 85.4449 38.4461 94.1382C37.8621 92.4577 36.7284 90.1308 36.1788 88.7089C33.6366 82.0192 32.7433 78.0119 33.0182 73.2613L33.2243 49.1851C33.2243 48.668 33.6709 48.2479 34.2549 48.2479C34.8046 48.2479 35.2855 48.668 35.2855 49.2174L35.8352 73.6491C36.3505 73.8107 37.1063 73.9076 37.9652 73.5845L38.4461 49.2174C38.4461 48.7003 38.8927 48.2802 39.4767 48.2802C40.0264 48.2802 40.5074 48.7003 40.5074 49.2497L40.8853 73.6168C41.4006 73.7784 42.2251 73.9076 43.3588 73.5522L43.6679 49.2497C43.6679 48.7326 44.1146 48.2802 44.6986 48.2802C45.2482 48.2802 45.6948 48.7003 45.7292 49.2174L46.1758 73.5198C46.6911 73.6491 47.4469 73.7137 48.3401 73.5845L48.8898 49.2497C48.8898 48.7326 49.3364 48.2802 49.9204 48.2802C50.4701 48.2802 50.9167 48.7003 50.951 49.2174L51.1915 74.0046C51.3976 80.4034 51.432 83.6997 48.9928 88.2888C47.8248 90.4863 45.7635 94.7522 45.7635 95.8833C45.7635 96.1095 45.7635 97.0144 45.7635 98.3071C50.367 100.731 53.4589 102.024 53.4589 102.024L53.3214 42.5277Z" fill="black"/>
</g>
<path d="M52.2914 34.9326C48.7873 26.9826 45.8329 16.3503 52.5319 8.33561C58.6126 1.06426 70.8426 -0.971718 81.2176 3.06792C76.3737 5.71793 73.7628 15.1545 68.8501 20.8423C59.4371 31.5716 53.9404 31.5716 52.2914 34.9326Z" fill="#5B8F31"/>
<path d="M64.1772 8.95044C61.0853 11.3742 56.0009 15.2523 54.0084 21.6834C52.2907 27.2742 52.1532 31.9925 52.222 34.8041C52.2563 34.8364 52.2563 34.9011 52.2907 34.9334C53.9397 31.6047 59.4707 31.6047 68.815 20.8108C73.7276 15.123 76.3385 5.71873 81.1824 3.03641C81.1481 3.00409 81.0794 3.00409 81.045 2.97178C74.6208 2.29312 67.0973 6.68824 64.1772 8.95044Z" fill="#437A14"/>
<path d="M54.0085 21.6835C56.001 15.2847 61.0854 11.3744 64.1773 8.95059C67.0974 6.6884 74.6209 2.26096 81.0108 2.97193C70.7046 -0.970754 58.5432 1.06523 52.4969 8.30425C45.8666 16.2543 48.718 26.8543 52.2221 34.7719C52.1534 31.9927 52.2908 27.2744 54.0085 21.6835Z" fill="#9CD316"/>
<path d="M52.4284 38.4556C51.9474 34.9007 51.7413 31.2812 52.2222 27.694C52.6688 24.1068 53.8025 20.552 55.6576 17.3526C57.5815 14.1855 60.1924 11.4062 63.2499 9.24096C66.3074 7.0434 69.7428 5.39522 73.3157 4.10254C66.5479 7.30193 60.0893 11.5355 56.4821 17.805C52.7375 23.9776 52.1535 31.3459 52.4284 38.4556Z" fill="#2C602C"/>
<path d="M52.4626 18.0322C52.3939 19.0341 52.6344 20.0359 52.8062 21.0054C53.0467 21.9749 53.2871 22.9767 53.665 23.817L53.2528 23.6554C54.5583 23.1706 55.8981 23.0737 57.2035 22.9121C58.5433 22.8151 59.8831 22.7505 61.1886 22.9767C59.8831 23.0414 58.5777 23.2676 57.2722 23.4615C56.0011 23.6554 54.6613 23.8816 53.4933 24.2371L53.1841 24.334L53.081 24.0755C52.6688 23.0737 52.4626 22.0719 52.3252 21.07C52.2222 20.0682 52.1878 19.0341 52.4626 18.0322Z" fill="#2C602C"/>
<path d="M56.0353 11.3096C56.1728 12.9254 56.5506 14.5413 57.4439 15.8017L57.1003 15.6724C58.5775 15.3815 60.0548 15.4139 61.4976 15.4785C62.9405 15.5755 64.4177 15.8017 65.8262 16.1572C62.9405 16.0279 60.0204 15.8986 57.2377 16.2864L56.9973 16.3187L56.8942 16.1572C55.9323 14.7029 55.7262 12.9254 56.0353 11.3096Z" fill="#2C602C"/>
<path d="M60.9136 6.04199C60.7762 7.72249 61.051 9.37066 61.8755 10.7603L61.532 10.5987C63.0092 10.3079 64.4864 10.3725 65.9637 10.4371C67.4065 10.5664 68.8838 10.7926 70.2579 11.3097C68.8151 11.0512 67.3722 11.0188 65.9293 10.9865C64.4864 10.9542 63.0435 11.0188 61.6694 11.1804L61.4289 11.2127L61.3258 11.0188C60.4326 9.49993 60.3296 7.62553 60.9136 6.04199Z" fill="#2C602C"/>
<path d="M67.9907 3.61816C67.819 4.71694 67.5441 5.84802 67.8533 6.84984L67.5785 6.72057C68.4717 6.46204 69.3992 6.46204 70.2924 6.49436C71.1856 6.52667 72.1132 6.68826 72.9377 6.97911C72.0445 6.88216 71.1513 6.81753 70.2924 6.81753C69.3992 6.81753 68.5404 6.97911 67.6815 7.10838L67.4411 7.14069L67.4067 6.97911C67.2006 5.75107 67.5098 4.6523 67.9907 3.61816Z" fill="#2C602C"/>
<path d="M76.4417 25.6904C65.1392 25.6904 55.6231 32.8002 52.6686 42.56C49.7142 32.8325 40.1637 25.6904 28.8956 25.6904C15.2227 25.6904 4.16064 36.1288 4.16064 48.9587C4.16064 69.8033 23.5364 85.4771 37.7933 94.1704C37.2093 92.4899 36.0756 90.163 35.5259 88.7411C32.9837 82.0514 32.0905 78.0441 32.3654 73.2935L32.5715 49.2173C32.5715 48.7002 33.0181 48.2801 33.6021 48.2801C34.1518 48.2801 34.6327 48.7002 34.6327 49.2496L35.1824 73.6813C35.6977 73.8429 36.4535 73.9399 37.3123 73.6167L37.7933 49.2496C37.7933 48.7325 38.2399 48.3124 38.8239 48.3124C39.3736 48.3124 39.8545 48.7325 39.8545 49.2819L40.2324 73.649C40.7478 73.8106 41.5723 73.9399 42.7059 73.5844L43.0151 49.2819C43.0151 48.7648 43.4617 48.3124 44.0458 48.3124C44.5954 48.3124 45.042 48.7325 45.0764 49.2496L45.523 73.552C46.0383 73.6813 46.7941 73.746 47.6873 73.6167L48.2369 49.2819C48.2369 48.7648 48.6836 48.3124 49.2676 48.3124C49.8172 48.3124 50.2638 48.7325 50.2982 49.2496L50.5387 74.0368C50.7448 80.4356 50.7792 83.7319 48.34 88.321C47.172 90.5185 45.1107 94.7844 45.1107 95.9155C45.1107 96.1417 45.1107 97.0466 45.1107 98.3393C49.7142 100.763 52.806 102.056 52.806 102.056C52.806 102.056 56.001 100.828 60.7762 98.4039C58.1653 94.5582 54.0084 91.3265 54.7642 82.4393C56.3445 64.0831 58.5088 48.9264 65.2422 47.8923C65.7575 47.7953 66.2385 48.1831 66.2385 48.6679V95.463C80.5985 87.2222 101.314 71.4514 101.314 49.088C101.177 36.0965 90.1146 25.6904 76.4417 25.6904Z" fill="#437A14"/>
<path d="M66.9942 97.3699C82.2818 88.612 104.337 71.8071 104.337 47.9894C104.337 34.3192 92.5537 23.2021 77.9875 23.2021C65.9636 23.2021 55.8291 30.7967 52.6686 41.1381C49.508 30.7643 39.3735 23.2021 27.3496 23.2021C12.8178 23.2021 1 34.2869 1 47.9894C1 70.1589 21.6125 86.8345 36.797 96.1095" stroke="#9CD316" stroke-width="0.1957" stroke-miterlimit="10"/>
<path d="M52.6686 42.5277C49.7142 32.8003 40.1637 25.6582 28.8956 25.6582C15.2227 25.6582 4.16064 36.0966 4.16064 48.9265C4.16064 69.7711 23.5364 85.4449 37.7933 94.1382C37.2093 92.4577 36.0756 90.1308 35.5259 88.7089C32.9837 82.0192 32.0905 78.0119 32.3654 73.2613L32.5715 49.1851C32.5715 48.668 33.0181 48.2479 33.6021 48.2479C34.1518 48.2479 34.6327 48.668 34.6327 49.2174L35.1824 73.6491C35.6977 73.8107 36.4535 73.9076 37.3123 73.5845L37.7933 49.2174C37.7933 48.7003 38.2399 48.2802 38.8239 48.2802C39.3736 48.2802 39.8545 48.7003 39.8545 49.2497L40.2324 73.6168C40.7477 73.7784 41.5722 73.9076 42.7059 73.5522L43.0151 49.2497C43.0151 48.7326 43.4617 48.2802 44.0457 48.2802C44.5954 48.2802 45.042 48.7003 45.0764 49.2174L45.523 73.5198C46.0383 73.6491 46.7941 73.7137 47.6873 73.5845L48.2369 49.2497C48.2369 48.7326 48.6835 48.2802 49.2676 48.2802C49.8172 48.2802 50.2638 48.7003 50.2982 49.2174L50.5387 74.0046C50.7448 80.4034 50.7791 83.6997 48.34 88.2888C47.172 90.4863 45.1107 94.7522 45.1107 95.8833C45.1107 96.1095 45.1107 97.0144 45.1107 98.3071C49.7142 100.731 52.806 102.024 52.806 102.024L52.6686 42.5277Z" fill="#9CD316"/>
<path d="M125.524 74.1763C125.524 74.5221 125.453 74.9168 125.309 75.3604C125.185 75.7191 125.038 76.0518 124.869 76.3584C125.084 76.4628 125.296 76.5835 125.505 76.7205C125.753 76.8836 125.945 77.0304 126.082 77.1608C127.041 78.1328 127.521 79.3005 127.521 80.6639C127.521 82.0338 127.041 83.2015 126.082 84.167C125.123 85.1455 123.962 85.6348 122.599 85.6348H116.737V69.8611H121.141C122.361 69.8611 123.404 70.2982 124.272 71.1723C125.107 72.0204 125.524 73.0217 125.524 74.1763ZM122.599 82.5427C123.107 82.5427 123.541 82.3567 123.9 81.9849C124.252 81.6196 124.428 81.1793 124.428 80.6639C124.428 80.1486 124.246 79.7017 123.88 79.3233C123.522 78.958 123.094 78.7591 122.599 78.7264C122.22 78.7069 121.77 78.7004 121.248 78.7069H120.593C120.312 78.7134 120.081 78.7167 119.898 78.7167V82.5427H122.599ZM122.471 74.3036C122.471 73.9382 122.341 73.6186 122.08 73.3446C121.819 73.0771 121.506 72.9434 121.141 72.9434H119.898V75.83C120.178 75.817 120.573 75.7909 121.082 75.7518C121.473 75.7061 121.799 75.5528 122.06 75.2919C122.334 75.0244 122.471 74.695 122.471 74.3036ZM134.517 69.5382L141.719 85.6348H138.284L137.218 83.2374H131.816L130.75 85.6348H127.325L134.517 69.5382ZM135.965 80.4388L134.527 77.1021L133.069 80.4388H135.965ZM146.269 69.8611V82.4839H152.61V85.6348H143.099V69.8611H146.269ZM160.585 69.5382L167.786 85.6348H164.352L163.285 83.2374H157.884L156.817 85.6348H153.393L160.585 69.5382ZM162.033 80.4388L160.594 77.1021L159.136 80.4388H162.033ZM178.668 78.5797V69.822H181.848V85.9577L172.337 76.8966V85.6543H169.166V69.5284L178.668 78.5797ZM196.888 83.4135C195.322 84.9661 193.43 85.7424 191.212 85.7424C189.007 85.7359 187.125 84.9596 185.566 83.4135C184 81.8479 183.218 79.9626 183.218 77.7577C183.218 75.5593 184 73.6708 185.566 72.0921C187.138 70.52 189.02 69.7339 191.212 69.7339L191.202 69.773C193.368 69.773 195.26 70.5526 196.878 72.1117L194.617 74.3721C193.665 73.4327 192.533 72.963 191.222 72.963C189.891 72.963 188.763 73.4327 187.836 74.3721C186.897 75.3245 186.427 76.4563 186.427 77.7675C186.427 79.0918 186.897 80.2236 187.836 81.1629C188.769 82.0958 189.898 82.5622 191.222 82.5622C192.553 82.5622 193.688 82.0925 194.627 81.1532L196.888 83.4135ZM207.778 69.822V72.9826H201.438V76.1627H206.193V79.3233H201.438V82.5035H207.778V85.6543H198.267V69.822H207.778Z" fill="#9CD316"/>
<path d="M131.901 37.8634L131.864 42.9906L121.578 42.9271L121.542 48.0861L129.256 48.1336L129.22 53.2608L121.506 53.2133L121.433 63.4835L116.29 63.4518L116.471 37.7682L131.901 37.8634ZM145.616 37.8051C149.183 37.8271 152.232 39.1211 154.764 41.6872C157.297 44.2533 158.55 47.3248 158.525 50.9017C158.5 54.4891 157.203 57.5395 154.635 60.053C152.077 62.556 149.01 63.7964 145.433 63.7744C141.846 63.7417 138.796 62.4635 136.285 59.9399C133.763 57.3844 132.515 54.3183 132.54 50.7414C132.565 47.1751 133.857 44.1194 136.414 41.5741C138.983 39.0394 142.05 37.7831 145.616 37.8051ZM145.58 42.9958C143.41 42.9824 141.569 43.733 140.055 45.2476C138.521 46.7833 137.746 48.6146 137.731 50.7417C137.716 52.8899 138.465 54.7306 139.978 56.2639C141.48 57.7865 143.311 58.5545 145.47 58.5678C147.597 58.5809 149.433 57.8356 150.978 56.3318C152.523 54.8279 153.303 52.9966 153.319 50.8378C153.334 48.7001 152.58 46.8594 151.056 45.3155C149.543 43.7822 147.717 43.009 145.58 42.9958ZM172.856 37.9731C176.422 37.9951 179.471 39.2891 182.004 41.8552C184.536 44.4213 185.79 47.4928 185.764 51.0696C185.739 54.6571 184.442 57.7075 181.874 60.221C179.316 62.7239 176.249 63.9644 172.672 63.9423C169.085 63.9096 166.036 62.6315 163.524 60.1078C161.002 57.5524 159.754 54.4862 159.779 50.9094C159.804 47.3431 161.096 44.2873 163.654 41.742C166.222 39.2074 169.289 37.9511 172.856 37.9731ZM172.819 43.1638C170.65 43.1504 168.808 43.901 167.295 45.4156C165.76 46.9512 164.985 48.7826 164.97 50.9096C164.955 53.0579 165.704 54.8986 167.217 56.4319C168.72 57.9545 170.55 58.7225 172.709 58.7358C174.836 58.7489 176.672 58.0036 178.217 56.4997C179.763 54.9959 180.543 53.1646 180.558 51.0058C180.573 48.8681 179.819 47.0273 178.295 45.4834C176.782 43.9502 174.957 43.1769 172.819 43.1638ZM194.871 38.3152C198.575 38.3381 201.683 39.6113 204.194 42.1349C206.464 44.4454 207.585 47.4684 207.559 51.204C207.533 54.9502 206.368 57.9539 204.066 60.215C201.53 62.6969 198.405 63.9264 194.69 63.9035L187.881 63.8615L188.061 38.2891L194.871 38.3311L194.871 38.3152ZM202.432 51.1407C202.448 48.8443 201.758 46.988 200.36 45.5719C198.963 44.1452 197.116 43.4247 194.819 43.4106L193.153 43.4003L193.044 58.7659L194.758 58.7765C197.065 58.7907 198.917 58.0984 200.313 56.6995C201.709 55.3112 202.416 53.4582 202.432 51.1407Z" fill="#191919"/>
</svg>
