<svg width="230" height="103" viewBox="0 0 230 103" fill="none" xmlns="http://www.w3.org/2000/svg">
<g opacity="0.1">
<path opacity="0.1" d="M53.6459 33.8794C50.3083 26.078 47.4943 15.6443 53.875 7.77948C59.6667 0.644025 71.3155 -1.3539 81.1974 2.61024C76.5837 5.21072 74.0969 14.471 69.4177 20.0525C60.4847 30.5812 55.2493 30.5812 53.6459 33.8794Z" fill="black"/>
<path opacity="0.1" d="M64.9993 8.38195C62.0543 10.7604 57.2116 14.566 55.3137 20.8769C53.6776 26.3633 53.5467 30.9934 53.6122 33.7525C53.6449 33.7842 53.6449 33.8476 53.6776 33.8793C55.2483 30.6129 60.5164 30.6129 69.4167 20.0207C74.0959 14.4392 76.5827 5.21063 81.1964 2.57844C81.1637 2.54673 81.0983 2.54673 81.0656 2.51501C74.9466 1.84904 67.7806 6.16203 64.9993 8.38195Z" fill="black"/>
<path opacity="0.1" d="M55.3136 20.877C57.2115 14.5977 62.0542 10.7605 64.9992 8.38197C67.7805 6.16205 74.9465 1.81734 81.0327 2.51503C71.2163 -1.35397 59.6328 0.643956 53.8739 7.7477C47.5586 15.5491 50.2745 25.9511 53.6121 33.7208C53.5139 30.9934 53.6448 26.3633 55.3136 20.877Z" fill="black"/>
<path opacity="0.1" d="M53.8081 37.3361C53.35 33.8477 53.1537 30.2958 53.6118 26.7756C54.0372 23.2555 55.117 19.767 56.884 16.6274C58.7164 13.5195 61.2032 10.7922 64.1154 8.6674C67.0276 6.5109 70.2998 4.89353 73.7028 3.625C67.2567 6.7646 61.105 10.919 57.6693 17.0714C54.0699 23.1286 53.5464 30.3592 53.8081 37.3361Z" fill="black"/>
<path opacity="0.1" d="M53.8089 17.2935C53.7435 18.2766 53.9725 19.2597 54.1361 20.2111C54.3652 21.1625 54.5942 22.1456 54.9542 22.9701L54.5615 22.8115C55.8049 22.3358 57.0811 22.2407 58.3245 22.0821C59.6006 21.987 60.8768 21.9236 62.1202 22.1456C60.8768 22.209 59.6333 22.431 58.3899 22.6213C57.1792 22.8115 55.9031 23.0335 54.7906 23.3824L54.4961 23.4775L54.3979 23.2238C54.0052 22.2407 53.8089 21.2576 53.678 20.2745C53.5799 19.2914 53.5799 18.2766 53.8089 17.2935Z" fill="black"/>
<path opacity="0.1" d="M57.245 10.697C57.3758 12.2827 57.7358 13.8683 58.5865 15.1052L58.2593 14.9783C59.6664 14.6929 61.0734 14.7246 62.4477 14.788C63.822 14.8832 65.229 15.1052 66.5706 15.454C63.822 15.3272 61.0407 15.2003 58.3902 15.5809L58.1612 15.6126L58.063 15.454C57.1141 14.0269 56.9505 12.2827 57.245 10.697Z" fill="black"/>
<path opacity="0.1" d="M61.8915 5.52771C61.7606 7.1768 62.0224 8.79417 62.8077 10.1578L62.4805 9.99927C63.8875 9.71385 65.2946 9.77728 66.7016 9.84071C68.0759 9.96756 69.4829 10.1895 70.7918 10.697C69.4175 10.4433 68.0432 10.4115 66.6689 10.3798C65.2946 10.3481 63.9203 10.4115 62.6114 10.5701L62.3823 10.6018L62.2842 10.4115C61.4007 8.92102 61.3353 7.08166 61.8915 5.52771Z" fill="black"/>
<path opacity="0.1" d="M68.6315 3.14929C68.4679 4.22754 68.2061 5.3375 68.5006 6.32061L68.2389 6.19376C69.0896 5.94005 69.9731 5.94005 70.8239 5.97177C71.6746 6.00348 72.5581 6.16205 73.3434 6.44747C72.4927 6.35233 71.6419 6.2889 70.8239 6.2889C69.9731 6.2889 69.1551 6.44747 68.337 6.57432L68.108 6.60603L68.0752 6.44747C67.8789 5.24236 68.1734 4.16411 68.6315 3.14929Z" fill="black"/>
<path opacity="0.1" d="M76.6804 24.8093C65.915 24.8093 56.8511 31.7862 54.037 41.3636C51.223 31.8179 42.1264 24.8093 31.3937 24.8093C18.3706 24.8093 7.83423 35.0527 7.83423 47.6428C7.83423 68.0978 26.2892 83.4787 39.8686 92.0095C39.3124 90.3604 38.2325 88.0771 37.709 86.6817C35.2876 80.1171 34.4368 76.1846 34.6986 71.5228L34.8949 47.8965C34.8949 47.3891 35.3203 46.9768 35.8766 46.9768C36.4001 46.9768 36.8582 47.3891 36.8582 47.9282L37.3818 71.9034C37.8726 72.0619 38.5925 72.1571 39.4105 71.8399L39.8686 47.9282C39.8686 47.4208 40.294 47.0085 40.8503 47.0085C41.3738 47.0085 41.8319 47.4208 41.8319 47.9599L42.1919 71.8717C42.6827 72.0302 43.468 72.1571 44.5478 71.8082L44.8423 47.9599C44.8423 47.4525 45.2677 47.0085 45.8239 47.0085C46.3475 47.0085 46.7729 47.4208 46.8056 47.9282L47.231 71.7765C47.7218 71.9034 48.4417 71.9668 49.2924 71.8399L49.816 47.9599C49.816 47.4525 50.2413 47.0085 50.7976 47.0085C51.3212 47.0085 51.7465 47.4208 51.7793 47.9282L52.0083 72.2522C52.2046 78.5314 52.2374 81.7662 49.9141 86.2694C48.8016 88.4259 46.8383 92.6121 46.8383 93.722C46.8383 93.944 46.8383 94.832 46.8383 96.1005C51.223 98.479 54.1679 99.7475 54.1679 99.7475C54.1679 99.7475 57.211 98.5424 61.7593 96.1639C59.2725 92.3901 55.3132 89.2188 56.0331 80.4976C57.5383 62.4846 59.5997 47.6111 66.0131 46.5963C66.504 46.5011 66.9621 46.8817 66.9621 47.3574V93.278C80.6397 85.1912 100.371 69.7152 100.371 47.7697C100.24 35.021 89.6708 24.8093 76.6804 24.8093Z" fill="black"/>
<path opacity="0.1" d="M67.6496 95.1491C82.2107 86.5548 103.218 70.064 103.218 46.6914C103.218 33.2768 91.9944 22.3674 78.1205 22.3674C66.6679 22.3674 57.0151 29.82 54.0047 39.9682C50.9943 29.7883 41.3415 22.3674 29.8889 22.3674C16.0477 22.3674 4.7915 33.245 4.7915 46.6914C4.7915 68.4466 24.4244 84.8106 38.8873 93.9123" stroke="black" stroke-width="0.1957" stroke-miterlimit="10"/>
<path opacity="0.1" d="M54.0053 41.3319C51.1913 31.7862 42.0947 24.7776 31.362 24.7776C18.3388 24.7776 7.80249 35.0209 7.80249 47.6111C7.80249 68.0661 26.2574 83.4469 39.8369 91.9778C39.2806 90.3287 38.2008 88.0453 37.6773 86.65C35.2559 80.0853 34.4051 76.1529 34.6669 71.4911L34.8632 47.8648C34.8632 47.3574 35.2886 46.9451 35.8449 46.9451C36.3684 46.9451 36.8265 47.3574 36.8265 47.8965L37.35 71.8716C37.8409 72.0302 38.5607 72.1253 39.3788 71.8082L39.8369 47.8965C39.8369 47.3891 40.2623 46.9768 40.8185 46.9768C41.3421 46.9768 41.8002 47.3891 41.8002 47.9282L42.1601 71.8399C42.6509 71.9985 43.4363 72.1253 44.5161 71.7765L44.8106 47.9282C44.8106 47.4208 45.2359 46.9768 45.7922 46.9768C46.3158 46.9768 46.7411 47.3891 46.7739 47.8965L47.1992 71.7448C47.6901 71.8716 48.4099 71.9351 49.2607 71.8082L49.7842 47.9282C49.7842 47.4208 50.2096 46.9768 50.7659 46.9768C51.2894 46.9768 51.7148 47.3891 51.7475 47.8965L51.9766 72.2205C52.1729 78.4997 52.2056 81.7344 49.8824 86.2377C48.7699 88.3942 46.8066 92.5803 46.8066 93.6903C46.8066 93.9123 46.8066 94.8003 46.8066 96.0688C51.1913 98.4473 54.1362 99.7158 54.1362 99.7158L54.0053 41.3319Z" fill="black"/>
</g>
<path d="M53.0246 33.8794C49.687 26.078 46.8729 15.6443 53.2536 7.77948C59.0453 0.644025 70.6942 -1.3539 80.5761 2.61024C75.9624 5.21072 73.4755 14.471 68.7964 20.0525C59.8307 30.5812 54.5952 30.5812 53.0246 33.8794Z" fill="#5B8F31"/>
<path d="M64.3447 8.38195C61.3998 10.7604 56.557 14.566 54.6592 20.8769C53.0231 26.3633 52.8922 30.9934 52.9576 33.7525C52.9904 33.7842 52.9904 33.8476 53.0231 33.8793C54.5937 30.6129 59.8619 30.6129 68.7621 20.0207C73.4413 14.4392 75.9282 5.21063 80.5419 2.57844C80.5092 2.54673 80.4437 2.54673 80.411 2.51501C74.2921 1.84904 67.1261 6.16203 64.3447 8.38195Z" fill="#437A14"/>
<path d="M54.6591 20.877C56.5569 14.5977 61.3997 10.7605 64.3446 8.38197C67.126 6.16205 74.292 1.81734 80.3782 2.51503C70.5617 -1.35397 58.9783 0.643956 53.2193 7.7477C46.9041 15.5491 49.6199 25.9511 52.9575 33.7208C52.8921 30.9934 53.023 26.3633 54.6591 20.877Z" fill="#9CD316"/>
<path d="M53.1543 37.3361C52.6962 33.8477 52.4999 30.2958 52.958 26.7756C53.3834 23.2555 54.4632 19.767 56.2302 16.6274C58.0626 13.5195 60.5494 10.7922 63.4616 8.6674C66.3738 6.5109 69.646 4.89353 73.049 3.625C66.6029 6.7646 60.4512 10.919 57.0155 17.0714C53.4488 23.1286 52.8926 30.3592 53.1543 37.3361Z" fill="#2C602C"/>
<path d="M53.1869 17.2935C53.1214 18.2766 53.3505 19.2597 53.5141 20.2111C53.7432 21.1625 53.9722 22.1456 54.3321 22.9701L53.9395 22.8115C55.1829 22.3358 56.459 22.2407 57.7025 22.0821C58.9786 21.987 60.2547 21.9236 61.4982 22.1456C60.2547 22.209 59.0113 22.431 57.7679 22.6213C56.5572 22.8115 55.2811 23.0335 54.1685 23.3824L53.874 23.4775L53.7759 23.2238C53.3832 22.2407 53.1869 21.2576 53.056 20.2745C52.9578 19.2914 52.9251 18.2766 53.1869 17.2935Z" fill="#2C602C"/>
<path d="M56.5898 10.697C56.7207 12.2827 57.0806 13.8683 57.9314 15.1052L57.6042 14.9783C59.0112 14.6929 60.4182 14.7246 61.7925 14.788C63.1668 14.8832 64.5739 15.1052 65.9154 15.454C63.1668 15.3272 60.3855 15.2003 57.7351 15.5809L57.506 15.6126L57.4078 15.454C56.4916 14.0269 56.2953 12.2827 56.5898 10.697Z" fill="#2C602C"/>
<path d="M61.2359 5.52771C61.105 7.1768 61.3667 8.79417 62.1521 10.1578L61.8248 9.99927C63.2319 9.71385 64.6389 9.77728 66.0459 9.84071C67.4202 9.96756 68.8273 10.1895 70.1361 10.697C68.7618 10.4433 67.3875 10.4115 66.0132 10.3798C64.6389 10.3481 63.2646 10.4115 61.9557 10.5701L61.7267 10.6018L61.6285 10.4115C60.7777 8.92102 60.6796 7.08166 61.2359 5.52771Z" fill="#2C602C"/>
<path d="M67.977 3.14929C67.8134 4.22754 67.5516 5.3375 67.8461 6.32061L67.5843 6.19376C68.4351 5.94005 69.3186 5.94005 70.1693 5.97177C71.0201 6.00348 71.9036 6.16205 72.6889 6.44747C71.8381 6.35233 70.9874 6.2889 70.1693 6.2889C69.3186 6.2889 68.5005 6.44747 67.6825 6.57432L67.4534 6.60603L67.4207 6.44747C67.2244 5.24236 67.5189 4.16411 67.977 3.14929Z" fill="#2C602C"/>
<path d="M76.0268 24.8093C65.2614 24.8093 56.1975 31.7862 53.3835 41.3636C50.5694 31.8179 41.4728 24.8093 30.7402 24.8093C17.717 24.8093 7.18066 35.0527 7.18066 47.6428C7.18066 68.0978 25.6356 83.4787 39.2151 92.0095C38.6588 90.3604 37.579 88.0771 37.0554 86.6817C34.634 80.1171 33.7833 76.1846 34.0451 71.5228L34.2414 47.8965C34.2414 47.3891 34.6668 46.9768 35.223 46.9768C35.7466 46.9768 36.2047 47.3891 36.2047 47.9282L36.7282 71.9034C37.219 72.0619 37.9389 72.1571 38.7569 71.8399L39.2151 47.9282C39.2151 47.4208 39.6404 47.0085 40.1967 47.0085C40.7202 47.0085 41.1783 47.4208 41.1783 47.9599L41.5383 71.8717C42.0291 72.0302 42.8144 72.1571 43.8942 71.8082L44.1887 47.9599C44.1887 47.4525 44.6141 47.0085 45.1704 47.0085C45.6939 47.0085 46.1193 47.4208 46.152 47.9282L46.5774 71.7765C47.0682 71.9034 47.7881 71.9668 48.6389 71.8399L49.1624 47.9599C49.1624 47.4525 49.5878 47.0085 50.144 47.0085C50.6676 47.0085 51.093 47.4208 51.1257 47.9282L51.3547 72.2522C51.5511 78.5314 51.5838 81.7662 49.2606 86.2694C48.148 88.4259 46.1847 92.6121 46.1847 93.722C46.1847 93.944 46.1847 94.832 46.1847 96.1005C50.5694 98.479 53.5144 99.7475 53.5144 99.7475C53.5144 99.7475 56.5575 98.5424 61.1058 96.1639C58.6189 92.3901 54.6596 89.2188 55.3795 80.4976C56.8847 62.4846 58.9461 47.6111 65.3596 46.5963C65.8504 46.5011 66.3085 46.8817 66.3085 47.3574V93.278C79.9861 85.1912 99.7172 69.7152 99.7172 47.7697C99.5863 35.021 89.05 24.8093 76.0268 24.8093Z" fill="#437A14"/>
<path d="M67.0282 95.1491C81.5893 86.5548 102.597 70.064 102.597 46.6914C102.597 33.2768 91.3731 22.3674 77.4991 22.3674C66.0466 22.3674 56.3937 29.82 53.3834 39.9682C50.373 29.7883 40.7201 22.3674 29.2676 22.3674C15.4264 22.3674 4.17017 33.245 4.17017 46.6914C4.17017 68.4466 23.8031 84.8106 38.266 93.9123" stroke="#9CD316" stroke-width="0.1957" stroke-miterlimit="10"/>
<path d="M53.3835 41.3319C50.5694 31.7862 41.4728 24.7776 30.7402 24.7776C17.717 24.7776 7.18066 35.0209 7.18066 47.6111C7.18066 68.0661 25.6356 83.4469 39.2151 91.9778C38.6588 90.3287 37.579 88.0453 37.0554 86.65C34.634 80.0853 33.7833 76.1529 34.045 71.4911L34.2414 47.8648C34.2414 47.3574 34.6668 46.9451 35.223 46.9451C35.7466 46.9451 36.2047 47.3574 36.2047 47.8965L36.7282 71.8716C37.219 72.0302 37.9389 72.1253 38.7569 71.8082L39.2151 47.8965C39.2151 47.3891 39.6404 46.9768 40.1967 46.9768C40.7202 46.9768 41.1783 47.3891 41.1783 47.9282L41.5383 71.8399C42.0291 71.9985 42.8144 72.1253 43.8942 71.7765L44.1887 47.9282C44.1887 47.4208 44.6141 46.9768 45.1704 46.9768C45.6939 46.9768 46.1193 47.3891 46.152 47.8965L46.5774 71.7448C47.0682 71.8716 47.7881 71.9351 48.6389 71.8082L49.1624 47.9282C49.1624 47.4208 49.5878 46.9768 50.144 46.9768C50.6676 46.9768 51.093 47.3891 51.1257 47.8965L51.3547 72.2205C51.5511 78.4997 51.5838 81.7344 49.2606 86.2377C48.148 88.3942 46.1847 92.5803 46.1847 93.6903C46.1847 93.9123 46.1847 94.8003 46.1847 96.0688C50.5694 98.4473 53.5144 99.7158 53.5144 99.7158L53.3835 41.3319Z" fill="#9CD316"/>
<path d="M116.5 71.8491C116.5 72.2459 116.418 72.6989 116.253 73.208C116.111 73.6198 115.942 74.0016 115.748 74.3535C115.995 74.4733 116.238 74.6118 116.478 74.769C116.762 74.9562 116.983 75.1247 117.14 75.2744C118.241 76.39 118.791 77.7301 118.791 79.2949C118.791 80.8672 118.241 82.2074 117.14 83.3154C116.04 84.4385 114.707 85 113.142 85H106.415V66.8965H111.469C112.869 66.8965 114.067 67.3981 115.063 68.4014C116.021 69.3747 116.5 70.5239 116.5 71.8491ZM113.142 81.4512C113.726 81.4512 114.224 81.2378 114.636 80.811C115.04 80.3918 115.242 79.8864 115.242 79.2949C115.242 78.7035 115.033 78.1906 114.614 77.7563C114.202 77.3371 113.711 77.1087 113.142 77.0713C112.708 77.0488 112.191 77.0413 111.593 77.0488H110.84C110.518 77.0563 110.252 77.0601 110.043 77.0601V81.4512H113.142ZM112.996 71.9951C112.996 71.5758 112.847 71.209 112.547 70.8945C112.248 70.5876 111.888 70.4341 111.469 70.4341H110.043V73.7471C110.365 73.7321 110.818 73.7021 111.402 73.6572C111.851 73.6048 112.225 73.4289 112.525 73.1294C112.839 72.8224 112.996 72.4443 112.996 71.9951ZM126.821 66.5259L135.087 85H131.145L129.921 82.2485H123.721L122.497 85H118.567L126.821 66.5259ZM128.483 79.0366L126.832 75.207L125.159 79.0366H128.483ZM140.309 66.8965V81.3838H147.586V85H136.67V66.8965H140.309ZM156.739 66.5259L165.005 85H161.063L159.839 82.2485H153.639L152.415 85H148.485L156.739 66.5259ZM158.401 79.0366L156.75 75.207L155.077 79.0366H158.401ZM177.493 76.9028V66.8516H181.143V85.3706L170.227 74.9712V85.0225H166.588V66.5146L177.493 76.9028ZM198.404 82.4507C196.607 84.2326 194.436 85.1235 191.89 85.1235C189.36 85.116 187.2 84.2251 185.41 82.4507C183.614 80.6538 182.715 78.4901 182.715 75.9595C182.715 73.4364 183.614 71.2689 185.41 69.457C187.215 67.6527 189.375 66.7505 191.89 66.7505L191.879 66.7954C194.365 66.7954 196.536 67.6901 198.393 69.4795L195.799 72.0737C194.705 70.9956 193.406 70.4565 191.902 70.4565C190.374 70.4565 189.079 70.9956 188.016 72.0737C186.938 73.1668 186.399 74.4658 186.399 75.9707C186.399 77.4906 186.938 78.7896 188.016 79.8677C189.087 80.9383 190.382 81.4736 191.902 81.4736C193.429 81.4736 194.732 80.9346 195.81 79.8564L198.404 82.4507ZM210.904 66.8516V70.479H203.626V74.1289H209.084V77.7563H203.626V81.4062H210.904V85.0225H199.988V66.8516H210.904Z" fill="#9CD316"/>
<path d="M124.65 34.3022L124.607 40.0602L113.055 39.9931L113.012 45.7868L121.676 45.8371L121.632 51.5951L112.968 51.5448L112.882 63.0786L107.106 63.0451L107.322 34.2016L124.65 34.3022ZM141.149 34.2375C145.154 34.2607 148.578 35.7128 151.421 38.5935C154.263 41.4743 155.67 44.9232 155.64 48.9401C155.609 52.9689 154.151 56.3952 151.266 59.219C148.392 62.0309 144.947 63.4252 140.93 63.4019C136.901 63.3666 133.477 61.9324 130.658 59.0993C127.827 56.2305 126.427 52.7876 126.457 48.7707C126.487 44.7656 127.939 41.3334 130.813 38.4739C133.699 35.6264 137.144 34.2142 141.149 34.2375ZM141.105 40.0668C138.669 40.0527 136.601 40.8964 134.9 42.5979C133.176 44.3231 132.305 46.3801 132.287 48.7689C132.269 51.1814 133.109 53.2483 134.807 54.9696C136.494 56.679 138.55 57.5407 140.974 57.5548C143.363 57.5686 145.425 56.7308 147.161 55.0413C148.897 53.3519 149.774 51.2949 149.793 48.8705C149.811 46.4699 148.964 44.4029 147.254 42.6697C145.556 40.9484 143.506 40.0807 141.105 40.0668ZM172.835 34.4214C176.84 34.4447 180.264 35.8967 183.107 38.7775C185.95 41.6582 187.356 45.1071 187.326 49.124C187.295 53.1529 185.838 56.5791 182.952 59.4029C180.079 62.2148 176.633 63.6091 172.616 63.5858C168.588 63.5506 165.164 62.1164 162.344 59.2833C159.513 56.4145 158.113 52.9716 158.143 48.9546C158.173 44.9496 159.625 41.5173 162.499 38.6578C165.385 35.8103 168.83 34.3982 172.835 34.4214ZM172.791 40.2507C170.355 40.2366 168.287 41.0803 166.586 42.7819C164.862 44.5071 163.991 46.564 163.973 48.9528C163.955 51.3654 164.795 53.4323 166.493 55.1536C168.18 56.8629 170.236 57.7246 172.66 57.7387C175.049 57.7526 177.111 56.9147 178.847 55.2253C180.583 53.5358 181.461 51.4789 181.479 49.0544C181.497 46.6538 180.651 44.5868 178.94 42.8536C177.242 41.1323 175.192 40.2647 172.791 40.2507ZM198.655 34.8031C202.814 34.8272 206.304 36.2558 209.123 39.0889C211.671 41.6828 212.929 45.0773 212.897 49.2725C212.866 53.4796 211.557 56.8532 208.971 59.3935C206.121 62.1818 202.61 63.5638 198.439 63.5396L190.791 63.4952L191.007 34.7765L198.654 34.8209L198.655 34.8031ZM207.139 49.2034C207.159 46.6245 206.384 44.5401 204.815 42.9503C203.247 41.3486 201.173 40.5403 198.594 40.5253L196.722 40.5145L196.592 57.7706L198.518 57.7818C201.109 57.7969 203.188 57.0186 204.757 55.447C206.326 53.8873 207.12 51.8061 207.139 49.2034Z" fill="white"/>
</svg>
