<svg width="40" height="44" viewBox="0 0 40 44" fill="none" xmlns="http://www.w3.org/2000/svg">
<g clip-path="url(#clip0)">
<path d="M36.7904 28.9364C34.3415 28.9364 31.9369 28.5178 29.6582 27.695C28.5222 27.2716 27.2288 27.6001 26.4876 28.4254L21.99 32.1355C16.7741 29.093 13.5611 25.5832 10.8149 19.9264L14.1102 15.1397C14.9664 14.2054 15.2734 12.8406 14.9055 11.5601C14.1493 9.057 13.7651 6.43066 13.7651 3.75345C13.7652 1.81941 12.3253 0.245972 10.5555 0.245972H3.20958C1.4399 0.245972 0 1.81941 0 3.75322C0 25.9212 16.504 43.9557 36.7904 43.9557C38.5602 43.9557 40.0001 42.3822 40.0001 40.4483V32.4436C40 30.5098 38.5601 28.9364 36.7904 28.9364ZM37.7778 40.4484C37.7778 41.0436 37.3351 41.5274 36.7904 41.5274C17.729 41.5274 2.22229 24.5825 2.22229 3.75333C2.22229 3.15813 2.665 2.67436 3.20969 2.67436H10.5556C11.1003 2.67436 11.543 3.15813 11.543 3.75333C11.543 6.6903 11.9651 9.57275 12.7908 12.3035C12.9058 12.7066 12.8125 13.1239 12.4393 13.5485L8.61979 19.0761C8.36375 19.4472 8.32354 19.944 8.51562 20.3578C11.633 27.0534 15.421 31.1928 21.5918 34.6479C21.9672 34.8624 22.4273 34.8175 22.768 34.5364L27.9427 30.2526C28.2042 29.9668 28.5959 29.8649 28.9497 29.9964C31.4659 30.9047 34.1038 31.3648 36.7904 31.3648C37.3351 31.3648 37.7778 31.8485 37.7778 32.4437V40.4484Z" fill="#95C21D"/>
</g>
<defs>
<clipPath id="clip0">
<rect width="40" height="43.7097" fill="white" transform="translate(0 0.245972)"/>
</clipPath>
</defs>
</svg>
