<svg width="25" height="28" viewBox="0 0 25 28" fill="none" xmlns="http://www.w3.org/2000/svg">
<path d="M22.994 17.9315C21.4634 17.9315 19.9605 17.6699 18.5364 17.1556C17.8264 16.8911 17.018 17.0964 16.5548 17.6121L13.7437 19.931C10.4838 18.0294 8.47572 15.8358 6.75931 12.3003L8.81888 9.30859C9.35397 8.72465 9.5459 7.87166 9.31595 7.07131C8.84329 5.5069 8.60319 3.86543 8.60319 2.19217C8.60326 0.983397 7.70332 0 6.5972 0H2.00599C0.899935 0 0 0.983397 0 2.19203C0 16.047 10.315 27.3186 22.994 27.3186C24.1001 27.3186 25.0001 26.3352 25.0001 25.1265V20.1235C25 18.9149 24.1001 17.9315 22.994 17.9315ZM23.6111 25.1265C23.6111 25.4985 23.3344 25.8009 22.994 25.8009C11.0806 25.8009 1.38893 15.2103 1.38893 2.1921C1.38893 1.8201 1.66562 1.51775 2.00605 1.51775H6.59727C6.9377 1.51775 7.21439 1.8201 7.21439 2.1921C7.21439 4.02771 7.47819 5.82924 7.99427 7.53594C8.06615 7.78792 8.00781 8.04873 7.77454 8.31409L5.38737 11.7688C5.22734 12.0007 5.20221 12.3113 5.32227 12.5699C7.27064 16.7547 9.63815 19.3418 13.4949 21.5012C13.7295 21.6353 14.0171 21.6072 14.23 21.4316L17.4642 18.7541C17.6276 18.5756 17.8725 18.5118 18.0936 18.594C19.6662 19.1617 21.3148 19.4492 22.994 19.4492C23.3344 19.4492 23.6111 19.7516 23.6111 20.1236V25.1265Z" fill="white"/>
</svg>
