<svg width="60" height="33" viewBox="0 0 60 33" fill="none" xmlns="http://www.w3.org/2000/svg">
<path d="M0.524272 15.0874C0.967317 14.3859 1.69841 13.9168 2.52071 13.8063L12.932 12.4078L25.0485 11.1262L40.7184 9.37864L43.1068 9.08738L39.9558 3.37287C39.7683 3.03275 39.6699 2.65067 39.6699 2.26227V2.09738C39.6699 1.64655 39.8335 1.21105 40.1304 0.871765L40.1409 0.859789C40.366 0.602563 40.6594 0.414476 40.9871 0.317377C41.6547 0.119562 42.3771 0.274673 42.9047 0.729117L59.2264 14.7884C59.5416 15.06 59.7745 15.4144 59.8986 15.8115C59.9658 16.0265 60 16.2505 60 16.4758V16.5556C60 16.779 59.9616 17.0008 59.8864 17.2112C59.7701 17.537 59.5691 17.826 59.3041 18.0485L42.8729 31.8418C42.4972 32.1572 42.0224 32.3301 41.5319 32.3301H41.4251C41.0061 32.3301 40.6004 32.1832 40.2786 31.915C39.9253 31.6206 39.6987 31.2014 39.646 30.7445L39.6314 30.6179C39.5807 30.1783 39.6695 29.7339 39.8853 29.3475L43.1651 23.4757L27.6117 21.7864L12.932 20.0971L2.52387 18.9061C1.70157 18.812 0.96624 18.3503 0.524272 17.6505L0.484984 17.5501C0.174204 16.7559 0.188316 15.8713 0.524272 15.0874Z" fill="#95C21D"/>
</svg>
