<svg width="60" height="33" viewBox="0 0 60 33" fill="none" xmlns="http://www.w3.org/2000/svg">
<path d="M59.4757 17.2427C59.0327 17.9442 58.3016 18.4133 57.4793 18.5238L47.068 19.9223L34.9515 21.2039L19.2816 22.9514L16.8932 23.2427L20.0442 28.9572C20.2317 29.2973 20.3301 29.6794 20.3301 30.0678V30.2327C20.3301 30.6835 20.1665 31.119 19.8696 31.4583L19.8591 31.4703C19.634 31.7275 19.3406 31.9156 19.0129 32.0127C18.3453 32.2105 17.6229 32.0554 17.0953 31.601L0.773598 17.5417C0.458351 17.2701 0.225483 16.9157 0.101376 16.5186C0.0341797 16.3035 0 16.0796 0 15.8543V15.7745C0 15.5511 0.0384102 15.3293 0.113552 15.1189C0.229927 14.7931 0.430935 14.5041 0.695938 14.2816L17.1271 0.488235C17.5028 0.172852 17.9776 -3.05176e-05 18.4681 -3.05176e-05H18.5749C18.9939 -3.05176e-05 19.3996 0.146851 19.7214 0.415052C20.0747 0.709509 20.3013 1.12863 20.354 1.58555L20.3686 1.71215C20.4193 2.15177 20.3305 2.59621 20.1147 2.98256L16.8349 8.85434L32.3883 10.5437L47.068 12.233L57.4761 13.424C58.2984 13.5181 59.0338 13.9798 59.4757 14.6796L59.515 14.78C59.8258 15.5742 59.8117 16.4588 59.4757 17.2427Z" fill="#95C21D"/>
</svg>
