<svg width="30" height="17" viewBox="0 0 30 17" fill="none" xmlns="http://www.w3.org/2000/svg">
<path d="M29.7379 8.62135C29.5163 8.9721 29.1508 9.20666 28.7396 9.26189L23.534 9.96116L17.4757 10.6019L9.64078 11.4757L8.4466 11.6214L10.0221 14.4786C10.1159 14.6487 10.165 14.8397 10.165 15.0339V15.1163C10.165 15.3418 10.0832 15.5595 9.9348 15.7292L9.92956 15.7351C9.81702 15.8638 9.6703 15.9578 9.50645 16.0064C9.17263 16.1053 8.81144 16.0277 8.54765 15.8005L0.386799 8.77084C0.229176 8.63507 0.112741 8.45785 0.0506878 8.25928C0.0170898 8.15177 0 8.03978 0 7.92714V7.88725C0 7.77554 0.0192051 7.66467 0.056776 7.55947C0.114964 7.39654 0.215467 7.25205 0.347969 7.14082L8.56355 0.244129C8.7514 0.0864372 8.98881 -3.8147e-06 9.23407 -3.8147e-06H9.28746C9.49693 -3.8147e-06 9.69978 0.0734367 9.8607 0.207538C10.0374 0.354766 10.1506 0.564326 10.177 0.792788L10.1843 0.856087C10.2097 1.0759 10.1652 1.29811 10.0573 1.49129L8.41747 4.42718L16.1942 5.27184L23.534 6.1165L28.7381 6.71199C29.1492 6.75904 29.5169 6.98991 29.7379 7.3398L29.7575 7.39C29.9129 7.78711 29.9058 8.2294 29.7379 8.62135Z" fill="white"/>
</svg>
