<svg width="30" height="17" viewBox="0 0 30 17" fill="none" xmlns="http://www.w3.org/2000/svg">
<path d="M0.262136 7.54369C0.483659 7.19294 0.849205 6.95838 1.26035 6.90315L6.46602 6.20388L12.5243 5.5631L20.3592 4.68932L21.5534 4.54369L19.9779 1.68643C19.8841 1.51637 19.835 1.32533 19.835 1.13113V1.04869C19.835 0.823276 19.9168 0.605524 20.0652 0.435882L20.0704 0.429894C20.183 0.301281 20.3297 0.207238 20.4936 0.158688C20.8274 0.059781 21.1886 0.137336 21.4523 0.364558L29.6132 7.3942C29.7708 7.52997 29.8873 7.70719 29.9493 7.90575C29.9829 8.01327 30 8.12526 30 8.2379V8.27779C30 8.3895 29.9808 8.50037 29.9432 8.60557C29.885 8.7685 29.7845 8.91299 29.652 9.02422L21.4365 15.9209C21.2486 16.0786 21.0112 16.165 20.7659 16.165H20.7125C20.5031 16.165 20.3002 16.0916 20.1393 15.9575C19.9626 15.8103 19.8494 15.6007 19.823 15.3723L19.8157 15.309C19.7903 15.0891 19.8348 14.8669 19.9427 14.6737L21.5825 11.7379L13.8058 10.8932L6.46602 10.0485L1.26194 9.45305C0.850786 9.406 0.48312 9.17513 0.262136 8.82524L0.242492 8.77504C0.0871018 8.37793 0.094158 7.93564 0.262136 7.54369Z" fill="white"/>
</svg>
