<svg width="35" height="39" viewBox="0 0 35 39" fill="none" xmlns="http://www.w3.org/2000/svg">
<g clip-path="url(#clip0)">
<path d="M28.176 36.9015C27.9026 36.9015 27.6311 36.8131 27.3981 36.6405L18.5977 30.1174L13.8777 33.8287C13.5075 34.1196 13.0304 34.1929 12.6005 34.0249C12.1712 33.8566 11.8452 33.468 11.7288 32.9862L9.35883 23.1716L0.890581 19.6333C0.357471 19.4104 0.00391142 18.8531 3.22355e-05 18.2294C-0.00384695 17.6057 0.342693 17.0431 0.873217 16.8124L33.0726 2.81176C33.2188 2.74394 33.3734 2.70478 33.5293 2.69428C33.5851 2.69065 33.641 2.69065 33.6966 2.69408C34.0195 2.71507 34.3367 2.85879 34.5842 3.12403C34.6099 3.15148 34.6343 3.17954 34.6574 3.20881C34.8624 3.46476 34.9751 3.77682 34.9963 4.09474C35.0015 4.17468 35.0011 4.25562 34.9947 4.33657C34.9902 4.3943 34.9827 4.45183 34.972 4.50895L29.5369 35.671C29.4495 36.1716 29.1377 36.5907 28.7069 36.7859C28.536 36.8634 28.3556 36.9015 28.176 36.9015ZM19.3704 27.0315L27.2095 32.8418L31.4386 8.59428L16.1644 24.655L19.3335 27.0042C19.3462 27.0129 19.3584 27.0222 19.3704 27.0315ZM12.8447 25.7394L13.8943 30.0853L16.1557 28.3072L13.1946 26.1122C13.057 26.0105 12.9391 25.8837 12.8447 25.7394ZM5.1974 18.1908L11.0121 20.6202C11.4287 20.7942 11.7431 21.1769 11.8568 21.648L12.5943 24.7019C12.6281 24.3496 12.7742 24.0182 13.0115 23.7685L27.5657 8.46509L5.1974 18.1908Z" fill="white" fill-opacity="0.9"/>
</g>
<defs>
<clipPath id="clip0">
<rect width="35" height="38.246" fill="white" transform="translate(0 0.67334)"/>
</clipPath>
</defs>
</svg>
