<svg width="35" height="41" viewBox="0 0 35 41" fill="none" xmlns="http://www.w3.org/2000/svg">
<g clip-path="url(#clip0)">
<path d="M31.0492 4.16371C30.1321 3.23901 26.426 0.299112 18.171 0.259171C18.171 0.259171 8.4362 -0.382306 3.69063 4.37431C1.04898 7.26156 0.119689 11.4862 0.0216655 16.724C-0.0763582 21.9617 -0.203181 31.7775 8.45558 34.439H8.46389L8.45835 38.5003C8.45835 38.5003 8.40297 40.1445 9.39373 40.4798C10.5922 40.8865 11.2955 39.6368 12.4397 38.2897C13.0677 37.5502 13.9349 36.4639 14.5884 35.6336C20.5103 36.1783 25.0648 34.9334 25.582 34.7495C26.7777 34.3259 33.5436 33.3782 34.644 23.5636C35.7798 13.447 34.0946 7.04794 31.0492 4.16371ZM32.0527 22.838C31.124 31.0331 25.6363 31.5481 24.6245 31.9028C24.1942 32.0541 20.1941 33.1415 15.1638 32.7827C15.1638 32.7827 11.4157 37.7239 10.2449 39.0086C10.0622 39.2095 9.84729 39.2906 9.70386 39.2507C9.50227 39.1968 9.44689 38.936 9.44911 38.5548C9.45243 38.0101 9.48123 31.8059 9.48123 31.8059C9.48123 31.8059 9.4768 31.8059 9.48123 31.8059C2.15659 29.5838 2.58357 21.2294 2.66664 16.8547C2.74971 12.4799 3.50178 8.89612 5.73584 6.48574C9.74982 2.51281 18.0187 3.10648 18.0187 3.10648C25.0016 3.13977 28.3477 5.43759 29.1236 6.20736C31.6999 8.61774 33.0125 14.3856 32.0527 22.8355V22.838Z" fill="white" fill-opacity="0.9"/>
<path d="M21.569 17.005C21.4494 17.005 21.3343 16.9548 21.2476 16.8647C21.1609 16.7745 21.1093 16.6515 21.1033 16.5209C21.0241 14.7895 20.2776 13.9416 18.7541 13.8521C18.6327 13.8415 18.5199 13.7796 18.4397 13.6794C18.3595 13.5793 18.3183 13.4489 18.3249 13.316C18.3315 13.1831 18.3853 13.0583 18.4749 12.9682C18.5645 12.8781 18.6827 12.8298 18.8045 12.8336C20.8148 12.9546 21.9323 14.2091 22.0353 16.47C22.0384 16.537 22.0294 16.6039 22.0088 16.667C21.9881 16.7301 21.9564 16.7881 21.9152 16.8378C21.8741 16.8875 21.8244 16.9278 21.769 16.9565C21.7136 16.9852 21.6535 17.0017 21.5923 17.005H21.569Z" fill="white" fill-opacity="0.9"/>
<path d="M23.965 17.8826H23.9539C23.8302 17.8795 23.7127 17.8227 23.6272 17.7249C23.5418 17.6271 23.4953 17.4962 23.4982 17.361C23.5342 15.6175 23.0784 14.2056 22.1048 13.0449C21.1312 11.8842 19.8048 11.2548 18.0365 11.1132C17.9128 11.1034 17.7978 11.0402 17.7168 10.9377C17.6357 10.8351 17.5952 10.7016 17.6043 10.5665C17.6133 10.4313 17.6711 10.3056 17.7649 10.2171C17.8588 10.1285 17.981 10.0843 18.1046 10.0941C20.0945 10.2533 21.6717 11.014 22.7932 12.3544C23.9146 13.6949 24.4723 15.3905 24.4313 17.3821C24.4289 17.5156 24.3787 17.6427 24.2915 17.7363C24.2044 17.8298 24.0872 17.8823 23.965 17.8826Z" fill="white" fill-opacity="0.9"/>
<path d="M26.4167 18.9297C26.2935 18.9296 26.1754 18.8763 26.0879 18.7814C26.0005 18.6866 25.9509 18.5578 25.9499 18.4232C25.9283 15.3048 25.1064 12.9228 23.4372 11.1424C21.788 9.38744 19.7046 8.48695 17.244 8.46758C17.1827 8.46734 17.122 8.45391 17.0655 8.42805C17.0089 8.4022 16.9576 8.36442 16.9144 8.31688C16.8271 8.22086 16.7784 8.09091 16.7788 7.95561C16.7793 7.82031 16.8289 7.69074 16.9167 7.59541C17.0046 7.50007 17.1235 7.44679 17.2473 7.44727H17.2512C19.9604 7.46905 22.261 8.46637 24.0891 10.4126C25.9172 12.3588 26.8598 15.0566 26.8841 18.4171C26.885 18.5523 26.8368 18.6824 26.7499 18.7787C26.6631 18.8751 26.5449 18.9298 26.4212 18.9309L26.4167 18.9297Z" fill="white" fill-opacity="0.9"/>
<path d="M18.8717 23.3281C18.8717 23.3281 19.5279 23.3886 19.8813 22.9129L20.5702 21.9658C20.9025 21.4962 21.7044 21.1967 22.4897 21.6747C23.0782 22.0415 23.6495 22.4402 24.2015 22.8693C24.7226 23.2881 25.7898 24.2612 25.7932 24.2612C26.3015 24.7302 26.419 25.4189 26.0728 26.1451C26.0728 26.1493 26.0701 26.1566 26.0701 26.1602C25.6888 26.8824 25.2048 27.5336 24.6363 28.0895C24.6296 28.0931 24.6296 28.0968 24.6235 28.1004C24.1295 28.5515 23.6442 28.8078 23.1676 28.8696C23.0974 28.883 23.0261 28.8879 22.9549 28.8841C22.7447 28.8863 22.5356 28.8512 22.3357 28.78L22.3202 28.7552C21.5859 28.5289 20.3598 27.9624 18.3179 26.7315C17.1363 26.0276 16.0113 25.2156 14.9552 24.3042C14.4258 23.8476 13.9208 23.3583 13.4427 22.8385L13.3918 22.7828L13.3408 22.7271L13.2899 22.6714C13.2727 22.6533 13.2561 22.6345 13.2389 22.6158C12.7633 22.0934 12.3154 21.5415 11.8976 20.9631C11.0637 19.809 10.3206 18.58 9.67629 17.2891C8.54984 15.0572 8.03148 13.7186 7.82436 12.9149L7.80165 12.898C7.73673 12.6796 7.70474 12.4511 7.70695 12.2214C7.70307 12.1437 7.70735 12.0657 7.71969 11.989C7.77913 11.469 8.01413 10.9383 8.42468 10.3968C8.42801 10.3902 8.43133 10.3902 8.43465 10.3829C8.94321 9.7616 9.53921 9.2329 10.2002 8.81675C10.2035 8.81675 10.2102 8.81311 10.214 8.81311C10.8786 8.43489 11.5088 8.56318 11.9375 9.1157C11.9408 9.11933 12.8297 10.2855 13.2112 10.855C13.604 11.4587 13.9689 12.0837 14.3044 12.7273C14.742 13.5849 14.4678 14.463 14.0381 14.8248L13.1714 15.5777C12.7338 15.9638 12.7914 16.6809 12.7914 16.6809C12.7914 16.6809 14.0752 21.99 18.8717 23.3281Z" fill="white" fill-opacity="0.9"/>
</g>
<defs>
<clipPath id="clip0">
<rect width="35" height="40.3302" fill="white" transform="translate(0 0.229858)"/>
</clipPath>
</defs>
</svg>
